<svg width="18" height="21" viewBox="0 0 18 21" fill="none" xmlns="http://www.w3.org/2000/svg">
<path d="M9 0.00012207C11.2543 0.00012207 13.4163 0.895655 15.0104 2.48971C16.6045 4.08377 17.5 6.24578 17.5 8.50012C17.5 15.0001 12 20.5001 9 20.5001C6 20.5001 0.5 15.0001 0.5 8.50012C0.5 6.24578 1.39553 4.08377 2.98959 2.48971C4.58365 0.895655 6.74566 0.00012207 9 0.00012207ZM14.5 10.0001C13.869 10.0001 13.245 10.1328 12.6686 10.3896C12.0922 10.6464 11.5762 11.0216 11.1542 11.4907C10.7322 11.9599 10.4136 12.5125 10.219 13.1128C10.0245 13.7131 9.95839 14.3476 10.025 14.9751C10.6924 15.046 11.3672 14.9667 12 14.743C12.6328 14.5193 13.2075 14.1568 13.6821 13.6823C14.1567 13.2077 14.5191 12.6329 14.7428 12.0001C14.9665 11.3674 15.0459 10.6925 14.975 10.0251C14.8172 10.0085 14.6587 10.0002 14.5 10.0001ZM3.5 10.0001C3.34 10.0001 3.181 10.0081 3.025 10.0251C2.95413 10.6925 3.03345 11.3674 3.25716 12.0001C3.48086 12.6329 3.84328 13.2077 4.31786 13.6823C4.79245 14.1568 5.36719 14.5193 5.99998 14.743C6.63277 14.9667 7.30758 15.046 7.975 14.9751C8.04161 14.3476 7.9755 13.7131 7.78096 13.1128C7.58642 12.5125 7.26781 11.9599 6.8458 11.4907C6.42379 11.0216 5.90783 10.6464 5.33142 10.3896C4.75501 10.1328 4.13103 10.0001 3.5 10.0001Z" fill="white"/>
</svg>
