<svg width="32" height="32" viewBox="0 0 32 32" fill="none" xmlns="http://www.w3.org/2000/svg">
<path d="M16 32C24.8366 32 32 24.8366 32 16C32 7.16344 24.8366 0 16 0C7.16344 0 0 7.16344 0 16C0 24.8366 7.16344 32 16 32Z" fill="#5E3BEE"/>
<path d="M12.0815 16.7952L13.3002 18.0145L14.2442 17.0705L13.0242 15.8525L13.9668 14.9099L15.1861 16.1285L16.1289 15.1858L14.9108 13.9665L15.8536 13.0239L17.0708 14.2439L18.0142 13.3005L16.7949 12.0818L18.6809 10.1965C18.8059 10.0715 18.9754 10.0013 19.1522 10.0013C19.329 10.0013 19.4985 10.0715 19.6235 10.1965L22.4515 13.0245C22.5765 13.1496 22.6467 13.319 22.6467 13.4959C22.6467 13.6726 22.5765 13.8421 22.4515 13.9672L13.9668 22.4518C13.8418 22.5769 13.6723 22.647 13.4955 22.647C13.3187 22.647 13.1492 22.5769 13.0242 22.4518L10.1962 19.6239C10.0712 19.4989 10.001 19.3293 10.001 19.1525C10.001 18.9758 10.0712 18.8062 10.1962 18.6812L12.0815 16.7952ZM17.7381 20.5659L20.5668 17.7378L22.3242 19.4952V22.3239H19.4962L17.7381 20.5659ZM12.0815 14.9092L10.1955 13.0239C10.1335 12.9619 10.0844 12.8884 10.0508 12.8075C10.0173 12.7265 10 12.6398 10 12.5522C10 12.4645 10.0173 12.3778 10.0508 12.2969C10.0844 12.216 10.1335 12.1424 10.1955 12.0805L12.0815 10.1952C12.2065 10.0702 12.3761 10 12.5529 10C12.7296 10 12.8992 10.0702 13.0242 10.1952L14.9108 12.0805L12.0815 14.9092Z" fill="white"/>
</svg>
