<svg width="134" height="30" viewBox="0 0 134 30" fill="none" xmlns="http://www.w3.org/2000/svg">
<g clip-path="url(#clip0)">
<path d="M15.155 30C23.525 30 30.3101 23.2843 30.3101 15C30.3101 6.71573 23.525 0 15.155 0C6.78515 0 0 6.71573 0 15C0 23.2843 6.78515 30 15.155 30Z" fill="#989DBB"/>
<path d="M9.93065 23.3761H8.33313L8.67857 21.7094C8.8309 20.9485 9.2459 20.2637 9.85249 19.7725C10.4591 19.2813 11.2194 19.0142 12.0032 19.0171H13.6007L13.2553 20.6837C13.1017 21.444 12.6862 22.128 12.0799 22.619C11.4737 23.11 10.714 23.3776 9.93065 23.3761Z" fill="white"/>
<path d="M15.2414 17.5641H9.1535L9.49889 15.8974C9.65122 15.1365 10.0663 14.4517 10.6729 13.9605C11.2794 13.4693 12.0398 13.2022 12.8235 13.2051H18.9114L18.566 14.8718C18.4062 15.6291 17.9892 16.3093 17.3842 16.7992C16.7793 17.2891 16.023 17.559 15.2414 17.5641Z" fill="white"/>
<path d="M19.4728 11.7092H9.97388L10.3193 10.0426C10.4716 9.28164 10.8867 8.59684 11.4932 8.10562C12.0998 7.6144 12.8602 7.34735 13.6439 7.35024H23.1428L22.7974 9.01692C22.6376 9.7742 22.2205 10.4544 21.6155 10.9443C21.0106 11.4342 20.2544 11.7041 19.4728 11.7092Z" fill="white"/>
<path d="M38.3613 14.1382V11.3527H40.3941V10.001C40.3646 9.4097 40.4553 8.81857 40.6608 8.26259C40.8663 7.70662 41.1824 7.19712 41.5905 6.76426C42.0118 6.35478 42.514 6.03596 43.0657 5.82776C43.6174 5.61956 44.2066 5.52647 44.7964 5.55441C45.3479 5.52879 45.8992 5.60908 46.4198 5.79077V8.507C46.0808 8.4208 45.7314 8.38085 45.3814 8.38821C44.9518 8.37874 44.5311 8.51068 44.1854 8.7634C44.0037 8.92099 43.8627 9.1194 43.7745 9.34203C43.6862 9.56466 43.6531 9.80501 43.6781 10.0429V11.3523H46.4203V14.1378H43.6781V23.3527H40.3966V14.1382H38.3613Z" fill="#989DBB"/>
<path d="M47.9681 23.3548V5.69922H51.2521V23.3548H47.9681Z" fill="#989DBB"/>
<path d="M52.8527 17.3123C52.8255 16.4743 52.9727 15.6398 53.2851 14.8605C53.5975 14.0812 54.0685 13.3739 54.6687 12.7823C55.2632 12.1948 55.9726 11.7334 56.7533 11.4263C57.534 11.1191 58.3698 10.9728 59.2096 10.9961C60.0494 10.9728 60.8851 11.1192 61.6658 11.4263C62.4464 11.7335 63.1557 12.1949 63.7501 12.7823C64.3505 13.3738 64.8216 14.0811 65.1341 14.8604C65.4466 15.6397 65.5938 16.4743 65.5665 17.3123C65.5928 18.1595 65.4449 19.0031 65.1318 19.7921C64.8186 20.581 64.3468 21.2986 63.7449 21.9016C63.1562 22.4972 62.4499 22.9663 61.6698 23.2796C60.8898 23.5929 60.0529 23.7436 59.2114 23.7225C58.3698 23.7437 57.5329 23.593 56.7529 23.2797C55.9728 22.9664 55.2664 22.4972 54.6778 21.9016C54.0752 21.299 53.6027 20.5814 53.2889 19.7925C52.9752 19.0035 52.8268 18.1597 52.8527 17.3123ZM56.1342 17.3123C56.1081 17.7676 56.1743 18.2236 56.329 18.6532C56.4837 19.0828 56.7237 19.4775 57.0348 19.814C57.3136 20.1062 57.6507 20.3379 58.0247 20.4943C58.3987 20.6508 58.8015 20.7287 59.2075 20.723C59.6136 20.7303 60.0168 20.6542 60.3919 20.4998C60.7669 20.3454 61.1056 20.1158 61.3866 19.8255C61.6976 19.4869 61.9369 19.09 62.0904 18.6584C62.2439 18.2267 62.3085 17.769 62.2804 17.3123C62.3085 16.8554 62.2439 16.3977 62.0904 15.9659C61.9369 15.5342 61.6976 15.1373 61.3866 14.7986C61.1056 14.5084 60.7668 14.2788 60.3918 14.1244C60.0168 13.97 59.6136 13.894 59.2075 13.9012C58.8014 13.8939 58.3981 13.9698 58.023 14.1242C57.648 14.2787 57.3094 14.5083 57.0284 14.7986C56.7176 15.1374 56.4785 15.5343 56.3253 15.966C56.1721 16.3978 56.1078 16.8555 56.1363 17.3123H56.1342Z" fill="#989DBB"/>
<path d="M65.3874 11.3535H68.791L71.0431 19.068L73.6808 11.3535H77.1371L79.7505 19.0856L81.9858 11.3535H85.2672L81.4733 23.354H78.1919L75.3422 15.1634L72.5543 23.354H69.2111L65.3874 11.3535Z" fill="#989DBB"/>
<path d="M86.3048 23.3548V5.69922H89.5526V12.6825C89.8994 12.1698 90.3865 11.7654 90.9571 11.5168C91.6628 11.1903 92.4352 11.0294 93.214 11.0466C94.2779 11.0218 95.3254 11.3101 96.2238 11.8749C97.0712 12.4199 97.7412 13.1959 98.1529 14.1094C98.6002 15.119 98.8212 16.2124 98.8006 17.3146C98.8193 18.4361 98.5789 19.547 98.0977 20.5625C97.6575 21.4895 96.9617 22.2746 96.0904 22.8274C95.1937 23.3863 94.1517 23.6738 93.0922 23.6544C92.3452 23.6683 91.6059 23.5028 90.9377 23.1719C90.3486 22.8858 89.8518 22.4427 89.5033 21.8924V23.3569L86.3048 23.3548ZM89.5046 17.3368C89.4556 18.2472 89.7677 19.1405 90.3742 19.8266C90.646 20.1236 90.979 20.3595 91.3507 20.5184C91.7225 20.6773 92.1243 20.7554 92.5291 20.7475C92.9314 20.758 93.3313 20.6822 93.7012 20.5253C94.0711 20.3684 94.4023 20.1341 94.672 19.8385C95.268 19.143 95.5709 18.2473 95.5178 17.3368C95.5723 16.4298 95.2691 15.5373 94.672 14.8471C94.4005 14.5545 94.0687 14.323 93.699 14.1682C93.3293 14.0134 92.9304 13.9389 92.5291 13.9497C92.1259 13.9412 91.7255 14.0173 91.3541 14.1729C90.9827 14.3285 90.6487 14.5602 90.3742 14.8526C89.7648 15.5345 89.4522 16.4271 89.5046 17.336V17.3368Z" fill="#989DBB"/>
<path d="M99.6568 20.1199C99.6371 19.6587 99.7164 19.1986 99.8895 18.77C100.063 18.3413 100.326 17.9539 100.661 17.6332C101.388 16.9794 102.303 16.5666 103.278 16.4524L106.261 16.0251C106.87 15.9441 107.175 15.6792 107.175 15.2302C107.177 15.0286 107.131 14.8293 107.04 14.6489C106.95 14.4685 106.817 14.312 106.653 14.1926C106.208 13.8919 105.673 13.748 105.136 13.784C104.542 13.7546 103.958 13.95 103.504 14.3306C103.105 14.6778 102.859 15.1665 102.82 15.6913L99.8986 15.087C99.9498 14.575 100.101 14.0777 100.344 13.6229C100.604 13.1349 100.944 12.6926 101.349 12.314C101.815 11.8884 102.364 11.5626 102.963 11.3571C103.652 11.112 104.38 10.9906 105.112 10.9986C105.939 10.9822 106.763 11.1108 107.545 11.3785C108.169 11.588 108.733 11.9455 109.186 12.4199C109.58 12.8508 109.884 13.3546 110.08 13.9024C110.281 14.4776 110.381 15.0827 110.375 15.6913V21.4511C110.369 22.0891 110.417 22.7264 110.519 23.3563H107.304C107.207 22.8823 107.163 22.3992 107.174 21.9157C106.851 22.4472 106.398 22.8894 105.856 23.2015C105.239 23.5486 104.537 23.7214 103.827 23.7011C102.719 23.7514 101.635 23.3721 100.804 22.6439C100.441 22.3294 100.151 21.9412 99.9527 21.5057C99.7546 21.0702 99.6537 20.5975 99.6568 20.1199ZM102.941 19.8905C102.938 20.0736 102.974 20.2553 103.045 20.4243C103.116 20.5934 103.221 20.7462 103.354 20.8733C103.509 21.0157 103.692 21.1256 103.891 21.1961C104.089 21.2667 104.301 21.2966 104.512 21.284C105.21 21.3111 105.892 21.0772 106.424 20.6289C106.925 20.1924 107.175 19.482 107.174 18.4977V17.9622L104.432 18.3802C104.032 18.4235 103.655 18.5876 103.353 18.8503C103.213 18.9842 103.103 19.1464 103.032 19.3259C102.961 19.5054 102.93 19.698 102.941 19.8905Z" fill="#989DBB"/>
<path d="M111.797 20.0086L114.612 19.4013C114.647 19.9017 114.877 20.3691 115.253 20.7048C115.697 21.0785 116.269 21.2684 116.851 21.2347C117.273 21.2623 117.691 21.14 118.031 20.8898C118.162 20.7877 118.267 20.6574 118.338 20.5087C118.41 20.3601 118.446 20.1972 118.445 20.0326C118.445 19.4294 118.013 19.0405 117.149 18.8659L115.555 18.4967C114.544 18.3387 113.607 17.8775 112.869 17.1753C112.276 16.57 111.95 15.7565 111.962 14.9133C111.96 14.3797 112.081 13.8527 112.316 13.3722C112.55 12.8916 112.892 12.47 113.315 12.1394C114.258 11.3629 115.456 10.9562 116.683 10.9962C117.298 10.9896 117.912 11.0699 118.504 11.2347C118.983 11.3618 119.438 11.5647 119.851 11.8355C120.19 12.0678 120.49 12.351 120.741 12.6749C120.961 12.9525 121.142 13.2589 121.277 13.5855C121.387 13.8627 121.461 14.1529 121.496 14.4488L118.703 15.068C118.647 14.6398 118.446 14.243 118.132 13.9428C117.939 13.7722 117.714 13.6416 117.469 13.5588C117.224 13.476 116.965 13.4426 116.707 13.4607C116.314 13.4487 115.927 13.5682 115.611 13.8C115.471 13.8951 115.358 14.0223 115.28 14.1705C115.201 14.3188 115.161 14.4836 115.161 14.6509C115.157 14.7825 115.181 14.9133 115.233 15.0346C115.285 15.1558 115.362 15.2646 115.46 15.3535C115.687 15.549 115.966 15.677 116.263 15.7227L117.977 16.0919C119.002 16.2504 119.952 16.7182 120.697 17.4313C121.004 17.7396 121.246 18.1051 121.409 18.5066C121.572 18.9082 121.653 19.3378 121.647 19.7706C121.648 20.2679 121.546 20.7601 121.348 21.2172C121.143 21.69 120.846 22.1187 120.475 22.4791C120.045 22.8852 119.531 23.1938 118.969 23.3838C118.297 23.6183 117.589 23.7332 116.877 23.7232C116.226 23.7303 115.577 23.6439 114.951 23.4668C114.445 23.33 113.967 23.1084 113.537 22.8116C113.181 22.5551 112.865 22.2483 112.599 21.9009C112.362 21.6018 112.17 21.2708 112.027 20.918C111.912 20.6258 111.834 20.3202 111.797 20.0086Z" fill="#989DBB"/>
<path d="M122.091 17.3061C122.084 16.4178 122.251 15.5365 122.583 14.7112C122.878 13.9607 123.325 13.2779 123.897 12.7053C124.442 12.1712 125.085 11.7448 125.791 11.4493C126.498 11.1494 127.259 10.9954 128.028 10.9967C129.89 10.9967 131.352 11.5503 132.411 12.6574C133.471 13.7645 134 15.2825 134 17.2112C134 17.3463 133.996 17.4931 133.988 17.6518C133.98 17.8105 133.972 17.9414 133.964 18.0446C133.956 18.148 133.952 18.2035 133.952 18.2112H125.292C125.3 18.584 125.388 18.9507 125.55 19.2873C125.712 19.6239 125.945 19.9227 126.232 20.1638C126.816 20.6759 127.574 20.9519 128.354 20.9373C129.742 20.9373 130.661 20.3302 131.111 19.116L133.831 19.9138C133.509 21.0097 132.83 21.9699 131.901 22.6459C130.864 23.3884 129.607 23.7675 128.328 23.7232C127.515 23.7268 126.709 23.5775 125.953 23.283C125.216 22.9992 124.542 22.5767 123.967 22.039C123.37 21.4668 122.904 20.7748 122.6 20.0095C122.252 19.1502 122.08 18.2316 122.091 17.3061ZM125.363 15.9967H130.8C130.792 15.7006 130.724 15.4092 130.6 15.1397C130.476 14.8702 130.298 14.6283 130.077 14.4283C129.52 13.9639 128.803 13.7323 128.076 13.7826C127.37 13.7504 126.679 13.9941 126.153 14.4612C125.698 14.852 125.415 15.4025 125.363 15.9963V15.9967Z" fill="#989DBB"/>
</g>
<defs>
<clipPath id="clip0">
<rect width="134" height="30" fill="white"/>
</clipPath>
</defs>
</svg>
