<svg width="17" height="14" viewBox="0 0 17 14" fill="none" xmlns="http://www.w3.org/2000/svg">
<path d="M11.7845 1.68308C11.1404 1.68297 10.5219 1.9338 10.0623 2.38159C9.60264 2.82937 9.33851 3.43833 9.32674 4.07741L9.30301 5.40198C9.30162 5.4731 9.28509 5.54312 9.25451 5.60746C9.22393 5.67179 9.17999 5.72898 9.12558 5.77528C9.07116 5.82158 9.00749 5.85594 8.93875 5.8761C8.87001 5.89627 8.79775 5.90178 8.72671 5.89228L7.40376 5.71399C5.66299 5.47851 3.99511 4.68292 2.39503 3.36003C1.88823 6.14374 2.87811 8.07215 5.26213 9.55988L6.74271 10.4833C6.81306 10.5272 6.8715 10.5875 6.91293 10.6589C6.95435 10.7304 6.9775 10.8109 6.98034 10.8933C6.98319 10.9757 6.96564 11.0575 6.92924 11.1316C6.89283 11.2057 6.83868 11.2699 6.77152 11.3184L5.4223 12.2965C6.22489 12.3461 6.98679 12.3108 7.61902 12.1863C11.6175 11.3941 14.2761 8.40855 14.2761 3.48366C14.2761 3.08166 13.4185 1.68308 11.7845 1.68308ZM7.63174 4.04629C7.64653 3.23561 7.90199 2.44727 8.36615 1.77998C8.8303 1.11269 9.48251 0.596105 10.2411 0.294899C10.9997 -0.00630696 11.831 -0.0787462 12.6309 0.0866512C13.4308 0.252049 14.1638 0.647932 14.738 1.22474C15.3406 1.22053 15.8533 1.37191 17 0.682291C16.7161 2.06153 16.5762 2.66032 15.9711 3.48366C15.9711 9.91058 11.9904 13.0357 7.95124 13.8355C5.18161 14.3839 1.15429 13.4831 0 12.2872C0.588165 12.2418 2.97811 11.987 4.35954 10.9837C3.19084 10.2192 -1.46109 7.5028 1.59584 0.199558C3.03066 1.86221 4.48582 2.9942 5.96047 3.59467C6.94187 3.99415 7.18256 3.98574 7.63258 4.04713L7.63174 4.04629Z" fill="#E0E2EF"/>
</svg>
