<svg width="20" height="20" viewBox="0 0 20 20" fill="none" xmlns="http://www.w3.org/2000/svg">
<path d="M1.86925 5.71167L9.57508 1.09167C9.7046 1.01396 9.85279 0.972908 10.0038 0.972908C10.1549 0.972908 10.3031 1.01396 10.4326 1.09167L18.1309 5.7125C18.1927 5.74951 18.2438 5.8019 18.2793 5.86455C18.3148 5.92721 18.3334 5.99799 18.3334 6.07V16.6667C18.3334 16.8877 18.2456 17.0996 18.0893 17.2559C17.9331 17.4122 17.7211 17.5 17.5001 17.5H2.50008C2.27907 17.5 2.06711 17.4122 1.91083 17.2559C1.75455 17.0996 1.66675 16.8877 1.66675 16.6667V6.06917C1.66673 5.99716 1.68538 5.92637 1.72087 5.86372C1.75636 5.80107 1.80748 5.74868 1.86925 5.71167ZM3.33341 6.7775V15.8333H16.6667V6.77667L10.0034 2.77667L3.33341 6.77667V6.7775ZM10.0501 11.415L14.4634 7.69583L15.5367 8.97083L10.0617 13.585L4.47008 8.97667L5.53008 7.69L10.0501 11.415Z" fill="#5E3BEE"/>
</svg>
