<svg width="20" height="20" viewBox="0 0 20 20" fill="none" xmlns="http://www.w3.org/2000/svg">
<path d="M3.63602 10.707L5.46402 12.536L6.88002 11.12L5.05002 9.293L6.46402 7.879L8.29302 9.707L9.70702 8.293L7.88002 6.464L9.29402 5.05L11.12 6.88L12.535 5.465L10.706 3.637L13.535 0.809C13.7225 0.621529 13.9769 0.516214 14.242 0.516214C14.5072 0.516214 14.7615 0.621529 14.949 0.809L19.191 5.051C19.3785 5.23853 19.4838 5.49284 19.4838 5.758C19.4838 6.02316 19.3785 6.27747 19.191 6.465L6.46402 19.192C6.27649 19.3795 6.02218 19.4848 5.75702 19.4848C5.49186 19.4848 5.23755 19.3795 5.05002 19.192L0.80802 14.95C0.620549 14.7625 0.515233 14.5082 0.515233 14.243C0.515233 13.9778 0.620549 13.7235 0.80802 13.536L3.63602 10.707ZM12.121 16.363L16.364 12.121L19 14.757V19H14.758L12.121 16.363ZM3.63602 7.878L0.807019 5.05C0.714043 4.95713 0.640284 4.84684 0.58996 4.72544C0.539636 4.60404 0.513733 4.47392 0.513733 4.3425C0.513733 4.21108 0.539636 4.08096 0.58996 3.95956C0.640284 3.83816 0.714043 3.72787 0.807019 3.635L3.63602 0.807C3.82355 0.619529 4.07786 0.514214 4.34302 0.514214C4.60818 0.514214 4.86249 0.619529 5.05002 0.807L7.88002 3.635L3.63602 7.878Z" fill="white"/>
</svg>
