<svg width="378" height="680" viewBox="0 0 378 680" fill="none" xmlns="http://www.w3.org/2000/svg">
<path d="M320.466 299.993C320.195 299.995 319.93 299.921 319.708 299.782C319.485 299.643 319.316 299.446 319.223 299.217L311.354 278.685C311.244 278.393 311.268 278.073 311.42 277.796C311.572 277.52 311.84 277.309 312.165 277.21C312.49 277.111 312.845 277.132 313.153 277.269C313.46 277.406 313.695 277.647 313.804 277.94L321.674 298.471C321.733 298.614 321.76 298.766 321.751 298.918C321.743 299.07 321.701 299.218 321.626 299.355C321.552 299.492 321.448 299.613 321.319 299.712C321.191 299.811 321.041 299.886 320.88 299.931C320.75 299.982 320.608 300.004 320.466 299.993Z" fill="#CED1E4" fill-opacity="0.6"/>
<path d="M247.671 662.138C247.487 662.141 247.304 662.107 247.136 662.037C246.969 661.967 246.821 661.863 246.705 661.734L227.721 641.544C227.554 641.305 227.487 641.019 227.534 640.739C227.581 640.46 227.738 640.205 227.976 640.02C228.214 639.836 228.518 639.735 228.833 639.735C229.147 639.735 229.451 639.837 229.689 640.022L248.672 660.243C248.901 660.462 249.027 660.751 249.027 661.051C249.027 661.351 248.901 661.639 248.672 661.858C248.393 662.066 248.033 662.167 247.671 662.138Z" fill="#CED1E4" fill-opacity="0.6"/>
<path d="M252.435 100.983C252.099 100.984 251.775 100.868 251.531 100.66C251.287 100.452 251.141 100.167 251.123 99.8649L250.813 82.2842C250.812 81.9734 250.944 81.6743 251.182 81.4488C251.42 81.2234 251.745 81.0887 252.09 81.0728C252.26 81.0687 252.43 81.0953 252.589 81.1512C252.748 81.2071 252.893 81.2911 253.015 81.3983C253.137 81.5054 253.234 81.6335 253.301 81.775C253.367 81.9165 253.401 82.0685 253.401 82.2221L253.712 99.8028C253.721 99.9548 253.696 100.107 253.638 100.25C253.58 100.393 253.49 100.523 253.373 100.634C253.257 100.744 253.117 100.832 252.961 100.892C252.806 100.953 252.638 100.983 252.469 100.983H252.435Z" fill="#CED1E4" fill-opacity="0.6"/>
<path d="M126.244 273.715H125.899L107.467 269.305C107.304 269.268 107.15 269.203 107.015 269.113C106.879 269.023 106.765 268.91 106.678 268.78C106.592 268.65 106.535 268.506 106.51 268.356C106.485 268.207 106.494 268.054 106.535 267.907C106.625 267.608 106.841 267.352 107.138 267.195C107.435 267.038 107.789 266.992 108.123 267.068L126.555 271.448C126.861 271.513 127.129 271.678 127.309 271.91C127.488 272.142 127.566 272.426 127.528 272.707C127.489 272.988 127.337 273.246 127.1 273.432C126.863 273.618 126.558 273.719 126.244 273.715Z" fill="#CED1E4" fill-opacity="0.6"/>
<path d="M166.904 484.56C166.736 484.564 166.569 484.536 166.414 484.477C166.259 484.418 166.12 484.33 166.006 484.218C165.884 484.111 165.787 483.983 165.721 483.842C165.655 483.7 165.621 483.549 165.621 483.395C165.621 483.242 165.655 483.09 165.721 482.948C165.787 482.807 165.884 482.679 166.006 482.572L185.439 464.96C185.688 464.753 186.014 464.638 186.354 464.638C186.693 464.638 187.019 464.753 187.268 464.96C187.39 465.067 187.487 465.195 187.554 465.337C187.62 465.478 187.654 465.63 187.654 465.783C187.654 465.937 187.62 466.089 187.554 466.23C187.487 466.371 187.39 466.499 187.268 466.607L167.836 484.218C167.717 484.332 167.572 484.422 167.411 484.481C167.25 484.54 167.077 484.567 166.904 484.56Z" fill="#CED1E4" fill-opacity="0.6"/>
<path d="M273.8 459.555H273.455C273.126 459.462 272.849 459.258 272.682 458.987C272.515 458.715 272.471 458.396 272.557 458.096L276.32 446.354C276.364 446.207 276.44 446.068 276.544 445.948C276.648 445.827 276.777 445.726 276.925 445.651C277.073 445.575 277.236 445.527 277.405 445.51C277.573 445.492 277.744 445.504 277.907 445.547C278.241 445.633 278.524 445.836 278.692 446.11C278.86 446.383 278.901 446.706 278.805 447.007L275.043 458.748C274.966 458.988 274.801 459.198 274.576 459.345C274.351 459.491 274.078 459.565 273.8 459.555Z" fill="#CED1E4" fill-opacity="0.6"/>
<path d="M364.991 492.512C364.82 492.541 364.645 492.541 364.474 492.512C364.165 492.377 363.925 492.141 363.803 491.852C363.681 491.564 363.687 491.244 363.818 490.959L370.376 478.317C370.446 478.176 370.547 478.05 370.673 477.946C370.799 477.841 370.946 477.76 371.107 477.708C371.268 477.656 371.439 477.633 371.61 477.642C371.781 477.65 371.948 477.69 372.102 477.757C372.41 477.892 372.648 478.13 372.764 478.42C372.88 478.71 372.866 479.03 372.723 479.31L366.338 491.984C366.197 492.182 365.994 492.339 365.754 492.433C365.514 492.527 365.249 492.554 364.991 492.512Z" fill="#CED1E4" fill-opacity="0.6"/>
<path d="M7.19267 430.077C6.96705 430.075 6.74598 430.019 6.55196 429.916C6.35795 429.812 6.19791 429.664 6.08815 429.487C6.00245 429.354 5.94694 429.208 5.92487 429.057C5.9028 428.905 5.91462 428.751 5.95963 428.603C6.00464 428.456 6.08193 428.318 6.18698 428.197C6.29203 428.077 6.42272 427.977 6.57138 427.902L32.2168 414.857C32.3636 414.78 32.5261 414.73 32.6947 414.71C32.8633 414.69 33.0346 414.701 33.1985 414.741C33.3625 414.782 33.5158 414.851 33.6495 414.946C33.7832 415.04 33.8946 415.158 33.9771 415.292C34.0628 415.424 34.1183 415.57 34.1404 415.722C34.1624 415.873 34.1506 416.028 34.1056 416.175C34.0606 416.323 33.9833 416.461 33.8783 416.581C33.7732 416.701 33.6425 416.801 33.4939 416.876L7.84847 429.89C7.65023 430 7.42498 430.064 7.19267 430.077Z" fill="#5E3BEE"/>
<path d="M227.687 526.307C227.412 526.306 227.144 526.228 226.921 526.083C226.698 525.938 226.531 525.734 226.444 525.499C226.39 525.354 226.369 525.201 226.382 525.049C226.395 524.897 226.441 524.749 226.518 524.613C226.595 524.477 226.702 524.356 226.831 524.258C226.961 524.159 227.111 524.085 227.272 524.039L240.112 520.218C240.442 520.12 240.801 520.143 241.112 520.283C241.422 520.423 241.659 520.668 241.769 520.964C241.868 521.256 241.837 521.572 241.682 521.844C241.528 522.117 241.262 522.324 240.941 522.424L228.273 526.151L227.687 526.307Z" fill="#CED1E4" fill-opacity="0.6"/>
<path d="M191.928 592.374C191.589 592.399 191.254 592.301 190.995 592.103C190.736 591.905 190.575 591.623 190.547 591.318C190.52 591.013 190.628 590.711 190.848 590.478C191.068 590.245 191.382 590.1 191.721 590.076L214.467 586.628C214.637 586.601 214.811 586.605 214.98 586.639C215.148 586.673 215.307 586.736 215.449 586.826C215.59 586.915 215.71 587.029 215.802 587.16C215.894 587.291 215.957 587.438 215.986 587.591C216.036 587.895 215.952 588.205 215.752 588.454C215.552 588.704 215.252 588.873 214.916 588.926L192.273 592.374H191.928Z" fill="#CED1E4" fill-opacity="0.6"/>
<path d="M374.069 344.784C373.765 344.781 373.472 344.684 373.239 344.508C373.006 344.333 372.848 344.09 372.792 343.821L370.238 330.496C370.209 330.344 370.213 330.189 370.251 330.04C370.289 329.89 370.36 329.749 370.46 329.625C370.56 329.5 370.686 329.395 370.832 329.315C370.977 329.235 371.139 329.183 371.308 329.16C371.473 329.133 371.643 329.136 371.807 329.168C371.972 329.201 372.127 329.262 372.265 329.348C372.403 329.435 372.521 329.545 372.611 329.673C372.702 329.8 372.763 329.943 372.792 330.092L375.346 343.417C375.397 343.725 375.315 344.039 375.115 344.293C374.916 344.548 374.616 344.723 374.276 344.784H374.069Z" fill="#CED1E4" fill-opacity="0.6"/>
<path d="M390.499 574.7L377.107 572.464C376.937 572.438 376.776 572.381 376.632 572.298C376.487 572.215 376.363 572.106 376.266 571.978C376.17 571.851 376.103 571.707 376.069 571.556C376.036 571.404 376.036 571.248 376.071 571.097C376.138 570.8 376.33 570.537 376.606 570.364C376.882 570.19 377.222 570.119 377.555 570.165L390.982 572.433C391.148 572.459 391.306 572.514 391.448 572.596C391.589 572.677 391.712 572.783 391.808 572.907C391.904 573.031 391.972 573.171 392.008 573.319C392.044 573.467 392.047 573.619 392.018 573.768C391.943 574.068 391.744 574.331 391.463 574.504C391.181 574.677 390.836 574.747 390.499 574.7Z" fill="#CED1E4" fill-opacity="0.6"/>
<path d="M130.869 419.238C130.659 419.241 130.452 419.197 130.265 419.11C130.078 419.023 129.918 418.896 129.799 418.741L122.378 408.832C122.186 408.577 122.115 408.263 122.179 407.96C122.244 407.657 122.44 407.39 122.724 407.217C123.007 407.044 123.356 406.98 123.692 407.038C124.029 407.096 124.326 407.272 124.518 407.528L131.939 417.436C132.041 417.561 132.114 417.703 132.152 417.853C132.19 418.004 132.193 418.16 132.16 418.312C132.128 418.464 132.061 418.608 131.963 418.735C131.866 418.862 131.74 418.97 131.594 419.051C131.379 419.178 131.126 419.243 130.869 419.238Z" fill="#CED1E4" fill-opacity="0.6"/>
<path d="M59.5935 581.627C59.4109 581.657 59.2239 581.657 59.0413 581.627C58.7352 581.499 58.498 581.267 58.3815 580.981C58.2651 580.696 58.2789 580.381 58.42 580.105L69.4996 557.834C69.6651 557.592 69.9221 557.412 70.2234 557.326C70.5247 557.241 70.85 557.257 71.1396 557.37C71.4292 557.483 71.6637 557.687 71.7999 557.943C71.9361 558.2 71.965 558.492 71.8812 558.766L60.8706 580.944C60.7636 581.163 60.5829 581.347 60.3539 581.47C60.1249 581.592 59.859 581.647 59.5935 581.627Z" fill="#CED1E4" fill-opacity="0.6"/>
<path d="M147.506 81.4455C147.227 81.4431 146.955 81.3604 146.732 81.2095C146.508 81.0587 146.344 80.8475 146.263 80.6069C146.216 80.46 146.202 80.3062 146.222 80.1544C146.242 80.0026 146.295 79.8559 146.379 79.7229C146.462 79.5898 146.574 79.4731 146.709 79.3795C146.843 79.286 146.997 79.2175 147.161 79.178L160.035 76.0719C160.201 76.03 160.374 76.0186 160.545 76.0384C160.715 76.0582 160.879 76.1088 161.028 76.1871C161.176 76.2654 161.305 76.3699 161.407 76.4942C161.51 76.6185 161.583 76.7601 161.623 76.9106C161.707 77.2112 161.657 77.5295 161.483 77.7969C161.308 78.0642 161.024 78.2591 160.691 78.3394L147.851 81.4455H147.506Z" fill="#CED1E4" fill-opacity="0.6"/>
<path d="M300.757 527.331C300.436 527.332 300.126 527.224 299.889 527.028C299.652 526.833 299.506 526.564 299.48 526.275C299.456 526.124 299.467 525.969 299.512 525.821C299.557 525.673 299.635 525.535 299.742 525.416C299.849 525.297 299.982 525.198 300.133 525.127C300.284 525.056 300.449 525.013 300.619 525.002L327.507 522.362C327.68 522.34 327.857 522.351 328.025 522.393C328.194 522.435 328.351 522.508 328.487 522.607C328.622 522.706 328.734 522.829 328.815 522.968C328.896 523.108 328.944 523.261 328.957 523.418C328.986 523.726 328.879 524.032 328.659 524.271C328.44 524.509 328.125 524.66 327.783 524.691L300.895 527.331H300.757Z" fill="#CED1E4" fill-opacity="0.6"/>
<path d="M201.558 153.57C201.264 153.571 200.978 153.482 200.746 153.319C200.515 153.155 200.351 152.927 200.281 152.669L195.69 133.877C195.617 133.577 195.678 133.263 195.858 133.002C196.039 132.741 196.325 132.553 196.657 132.479C196.995 132.423 197.344 132.485 197.632 132.652C197.921 132.82 198.128 133.08 198.21 133.38L202.835 152.017C202.897 152.317 202.827 152.627 202.641 152.882C202.454 153.137 202.165 153.316 201.834 153.384L201.558 153.57Z" fill="#CED1E4" fill-opacity="0.6"/>
<path d="M323.952 135.71C323.771 135.752 323.581 135.752 323.4 135.71C323.247 135.644 323.11 135.551 322.998 135.436C322.885 135.322 322.799 135.189 322.744 135.044C322.69 134.899 322.668 134.747 322.679 134.594C322.691 134.442 322.737 134.293 322.813 134.157L335.653 110.83C335.824 110.582 336.091 110.4 336.403 110.319C336.714 110.238 337.048 110.264 337.339 110.391C337.631 110.518 337.86 110.738 337.982 111.009C338.104 111.279 338.11 111.58 338 111.855L325.126 135.182C325.004 135.36 324.83 135.503 324.623 135.597C324.415 135.69 324.183 135.729 323.952 135.71Z" fill="#CED1E4" fill-opacity="0.6"/>
<path d="M137.393 561.033C137.233 561.062 137.069 561.062 136.909 561.033C136.753 560.978 136.61 560.896 136.489 560.791C136.368 560.687 136.271 560.562 136.203 560.423C136.136 560.285 136.1 560.135 136.096 559.984C136.093 559.833 136.123 559.683 136.185 559.542L145.504 537.799C145.628 537.507 145.875 537.271 146.192 537.143C146.509 537.014 146.87 537.005 147.195 537.116C147.514 537.233 147.768 537.459 147.904 537.743C148.039 538.028 148.045 538.349 147.92 538.638L138.532 560.319C138.432 560.52 138.273 560.692 138.072 560.818C137.872 560.944 137.637 561.018 137.393 561.033Z" fill="#CED1E4" fill-opacity="0.6"/>
<path d="M327.852 48.4273C327.621 48.4387 327.392 48.3843 327.197 48.2719L311.526 39.7611C311.383 39.6817 311.259 39.5777 311.161 39.4551C311.063 39.3324 310.992 39.1936 310.954 39.0464C310.915 38.8992 310.91 38.7467 310.937 38.5975C310.964 38.4483 311.023 38.3054 311.112 38.177C311.194 38.0426 311.306 37.9247 311.44 37.8308C311.575 37.7368 311.73 37.6688 311.895 37.631C312.06 37.5931 312.232 37.5862 312.4 37.6106C312.568 37.6351 312.729 37.6904 312.872 37.7732L328.37 46.284C328.516 46.3609 328.643 46.463 328.745 46.5845C328.846 46.706 328.92 46.8444 328.962 46.9918C329.004 47.1391 329.013 47.2924 328.988 47.4429C328.963 47.5933 328.906 47.7379 328.819 47.8681C328.72 48.0245 328.58 48.1569 328.412 48.2543C328.243 48.3516 328.052 48.4109 327.852 48.4273Z" fill="#CED1E4" fill-opacity="0.6"/>
<path d="M64.2878 215.196H63.9772C63.6455 215.122 63.3589 214.935 63.1785 214.674C62.998 214.413 62.9378 214.098 63.0107 213.798L67.843 195.503C67.9208 195.202 68.1281 194.942 68.4194 194.779C68.7107 194.616 69.0621 194.563 69.3962 194.633C69.7303 194.703 70.0199 194.89 70.2011 195.152C70.3823 195.414 70.4405 195.73 70.3626 196.031L65.5304 214.326C65.4667 214.578 65.3082 214.802 65.0817 214.961C64.8552 215.119 64.5747 215.202 64.2878 215.196Z" fill="#CED1E4" fill-opacity="0.6"/>
<path d="M336.55 409.919C336.212 409.919 335.887 409.798 335.647 409.583C335.408 409.367 335.273 409.075 335.273 408.77C335.273 408.462 335.407 408.167 335.645 407.946C335.884 407.726 336.208 407.598 336.55 407.59L354.395 407.372C354.702 407.418 354.981 407.56 355.183 407.773C355.384 407.986 355.495 408.257 355.495 408.537C355.495 408.817 355.384 409.088 355.183 409.301C354.981 409.515 354.702 409.657 354.395 409.702L336.516 409.919H336.55Z" fill="#CED1E4" fill-opacity="0.6"/>
<path d="M210.291 411.938H209.842C209.525 411.827 209.269 411.609 209.128 411.331C208.986 411.053 208.97 410.736 209.083 410.447L213.777 398.8C213.901 398.515 214.143 398.284 214.452 398.157C214.761 398.029 215.113 398.015 215.434 398.116C215.756 398.222 216.02 398.437 216.169 398.716C216.317 398.994 216.338 399.315 216.227 399.607L211.499 411.224C211.405 411.442 211.239 411.627 211.022 411.755C210.805 411.884 210.55 411.948 210.291 411.938Z" fill="#CED1E4" fill-opacity="0.6"/>
<path d="M93.6608 496.146C93.4597 496.147 93.261 496.106 93.0811 496.025C92.9011 495.944 92.745 495.826 92.6254 495.68L83.3061 484.311C83.2055 484.189 83.1327 484.051 83.0921 483.903C83.0515 483.755 83.0439 483.602 83.0695 483.452C83.0952 483.302 83.1538 483.158 83.2418 483.028C83.3298 482.898 83.4455 482.785 83.5822 482.696C83.8617 482.512 84.2111 482.434 84.5539 482.481C84.8966 482.527 85.205 482.694 85.4116 482.945L94.6618 494.282C94.7616 494.409 94.8327 494.552 94.8711 494.703C94.9095 494.854 94.9144 495.01 94.8855 495.163C94.8567 495.316 94.7947 495.462 94.703 495.594C94.6113 495.725 94.4917 495.839 94.3512 495.928C94.1527 496.065 93.9108 496.141 93.6608 496.146Z" fill="#CED1E4" fill-opacity="0.6"/>
<path d="M83.8584 350.282C83.653 350.285 83.4502 350.241 83.269 350.154C83.0879 350.067 82.9343 349.94 82.8229 349.785L68.6368 332.173C68.538 332.049 68.4675 331.909 68.4296 331.76C68.3917 331.611 68.387 331.457 68.4159 331.307C68.4448 331.156 68.5067 331.013 68.598 330.884C68.6893 330.755 68.8081 330.645 68.9475 330.558C69.0813 330.463 69.2353 330.394 69.4 330.355C69.5647 330.316 69.7366 330.308 69.9049 330.331C70.0732 330.355 70.2344 330.409 70.3784 330.49C70.5225 330.572 70.6463 330.68 70.7423 330.806L84.9283 348.449C85.0272 348.573 85.0977 348.713 85.1356 348.862C85.1735 349.011 85.1782 349.165 85.1493 349.315C85.1203 349.466 85.0585 349.609 84.9672 349.738C84.8759 349.866 84.7571 349.977 84.6177 350.064C84.4005 350.214 84.1319 350.291 83.8584 350.282Z" fill="#CED1E4" fill-opacity="0.6"/>
<path d="M167.249 350.095C167.027 350.097 166.808 350.046 166.614 349.948C166.421 349.85 166.259 349.708 166.145 349.536L157.274 336.832C157.18 336.702 157.116 336.557 157.086 336.405C157.056 336.252 157.06 336.096 157.099 335.945C157.138 335.794 157.21 335.652 157.311 335.527C157.412 335.402 157.541 335.296 157.688 335.217C157.83 335.133 157.988 335.076 158.155 335.049C158.322 335.022 158.493 335.026 158.658 335.061C158.823 335.096 158.978 335.161 159.114 335.252C159.25 335.343 159.364 335.458 159.449 335.59L168.354 348.294C168.448 348.423 168.512 348.569 168.542 348.721C168.572 348.873 168.568 349.03 168.529 349.181C168.49 349.332 168.418 349.474 168.317 349.599C168.216 349.724 168.087 349.829 167.94 349.909C167.735 350.031 167.495 350.096 167.249 350.095Z" fill="#CED1E4" fill-opacity="0.6"/>
<path d="M134.355 648.098C134.1 648.095 133.85 648.03 133.631 647.912C133.345 647.741 133.146 647.476 133.075 647.174C133.004 646.872 133.067 646.557 133.251 646.297L147.782 625.765C147.972 625.508 148.267 625.329 148.602 625.265C148.938 625.201 149.288 625.258 149.577 625.423C149.86 625.589 150.059 625.848 150.13 626.145C150.201 626.442 150.139 626.752 149.957 627.007L135.425 647.539C135.317 647.708 135.161 647.849 134.973 647.947C134.786 648.045 134.573 648.097 134.355 648.098Z" fill="#CED1E4" fill-opacity="0.6"/>
<path d="M57.2465 656.826H56.8668C56.5392 656.733 56.2652 656.528 56.1038 656.255C55.9425 655.982 55.9066 655.663 56.0039 655.367L64.3222 631.604C64.3731 631.459 64.4556 631.324 64.5651 631.207C64.6745 631.091 64.8087 630.995 64.9597 630.926C65.1107 630.856 65.2755 630.815 65.4446 630.803C65.6137 630.792 65.7836 630.811 65.9445 630.859C66.2721 630.952 66.5461 631.157 66.7075 631.43C66.8688 631.703 66.9047 632.022 66.8074 632.319L58.4891 656.081C58.3908 656.304 58.2192 656.495 57.9972 656.628C57.7752 656.762 57.5133 656.831 57.2465 656.826Z" fill="#CED1E4" fill-opacity="0.6"/>
<path d="M274.18 180.5C273.946 180.498 273.716 180.439 273.516 180.329C273.316 180.22 273.152 180.065 273.041 179.879L263.342 163.976C263.233 163.71 263.234 163.418 263.345 163.153C263.456 162.888 263.669 162.668 263.945 162.532C264.221 162.397 264.542 162.355 264.849 162.414C265.157 162.474 265.43 162.631 265.62 162.857L275.319 178.761C275.403 178.895 275.457 179.043 275.476 179.196C275.496 179.349 275.481 179.504 275.433 179.652C275.385 179.799 275.304 179.937 275.195 180.056C275.087 180.175 274.953 180.273 274.801 180.345C274.613 180.446 274.399 180.5 274.18 180.5Z" fill="#CED1E4" fill-opacity="0.6"/>
<path d="M244.116 29.7594C243.945 29.7888 243.77 29.7888 243.599 29.7594L217.159 19.5402C217.002 19.4825 216.859 19.397 216.738 19.2888C216.618 19.1806 216.523 19.0518 216.458 18.91C216.394 18.7682 216.362 18.6162 216.364 18.4631C216.365 18.31 216.401 18.1587 216.469 18.0182C216.613 17.7348 216.872 17.5122 217.194 17.3965C217.515 17.2808 217.874 17.281 218.195 17.397L244.634 27.6162C244.949 27.7455 245.196 27.9791 245.325 28.2683C245.454 28.5575 245.453 28.8802 245.324 29.1693C245.207 29.361 245.03 29.5185 244.816 29.6231C244.602 29.7276 244.359 29.7749 244.116 29.7594Z" fill="#CED1E4" fill-opacity="0.6"/>
<path d="M222.44 299.186C222.142 299.183 221.852 299.097 221.612 298.937L210.601 290.954C210.468 290.857 210.357 290.736 210.275 290.599C210.193 290.463 210.142 290.313 210.124 290.159C210.088 289.847 210.192 289.536 210.412 289.293C210.631 289.05 210.949 288.895 211.296 288.863C211.642 288.831 211.988 288.924 212.258 289.122L223.234 297.105C223.502 297.3 223.674 297.581 223.713 297.89C223.751 298.198 223.654 298.507 223.441 298.751C223.32 298.885 223.168 298.993 222.995 299.068C222.822 299.144 222.632 299.184 222.44 299.186Z" fill="#CED1E4" fill-opacity="0.6"/>
<path d="M114.025 166.74C113.799 166.742 113.577 166.687 113.382 166.583C113.187 166.479 113.028 166.33 112.921 166.15C112.829 166.021 112.767 165.876 112.74 165.725C112.713 165.573 112.721 165.419 112.763 165.27C112.805 165.122 112.881 164.982 112.985 164.861C113.089 164.74 113.22 164.64 113.37 164.566L137.013 152.141C137.16 152.066 137.323 152.017 137.491 151.998C137.659 151.979 137.83 151.99 137.993 152.031C138.157 152.071 138.31 152.14 138.444 152.234C138.577 152.327 138.69 152.444 138.773 152.576C138.857 152.709 138.911 152.855 138.932 153.006C138.953 153.158 138.941 153.311 138.896 153.458C138.851 153.605 138.775 153.743 138.671 153.864C138.567 153.984 138.437 154.085 138.29 154.16L114.681 166.585C114.478 166.679 114.254 166.732 114.025 166.74Z" fill="#5E3BEE"/>
<path d="M274.905 243.679C274.659 243.68 274.419 243.615 274.214 243.493L257.336 233.708C257.101 233.521 256.948 233.263 256.906 232.983C256.864 232.703 256.935 232.418 257.107 232.181C257.278 231.944 257.538 231.77 257.84 231.691C258.142 231.613 258.465 231.634 258.751 231.751L275.63 241.536C275.915 241.707 276.114 241.972 276.185 242.274C276.256 242.576 276.193 242.891 276.009 243.151C275.891 243.317 275.727 243.453 275.534 243.545C275.34 243.637 275.124 243.684 274.905 243.679Z" fill="#CED1E4" fill-opacity="0.6"/>
<path d="M297.823 592.995H297.478L279.495 588.274C279.332 588.235 279.179 588.166 279.046 588.072C278.913 587.978 278.802 587.861 278.722 587.727C278.641 587.593 278.591 587.446 278.576 587.294C278.561 587.143 278.58 586.99 278.632 586.845C278.729 586.551 278.949 586.303 279.245 586.152C279.541 586.002 279.891 585.96 280.22 586.038L298.169 590.728C298.333 590.767 298.486 590.836 298.621 590.929C298.755 591.023 298.867 591.14 298.951 591.273C299.034 591.406 299.087 591.552 299.107 591.704C299.127 591.856 299.113 592.01 299.066 592.157C298.99 592.4 298.827 592.614 298.603 592.766C298.378 592.917 298.104 592.998 297.823 592.995Z" fill="#CED1E4" fill-opacity="0.6"/>
<path d="M354.74 215.537C354.502 215.535 354.268 215.473 354.067 215.358C353.866 215.242 353.704 215.079 353.601 214.885L345.628 200.535C345.552 200.398 345.506 200.25 345.494 200.097C345.482 199.945 345.505 199.792 345.559 199.647C345.614 199.503 345.7 199.369 345.812 199.255C345.925 199.141 346.062 199.048 346.215 198.982C346.364 198.912 346.528 198.869 346.695 198.856C346.863 198.844 347.032 198.861 347.193 198.907C347.353 198.953 347.502 199.028 347.63 199.126C347.758 199.224 347.864 199.344 347.94 199.479L356.052 213.922C356.128 214.059 356.174 214.207 356.185 214.36C356.197 214.512 356.175 214.665 356.12 214.81C356.066 214.954 355.98 215.087 355.867 215.202C355.755 215.316 355.618 215.409 355.465 215.475C355.237 215.565 354.983 215.586 354.74 215.537Z" fill="#CED1E4" fill-opacity="0.6"/>
<path d="M178.329 232.839C178.162 232.823 178 232.778 177.853 232.705C177.707 232.632 177.578 232.533 177.474 232.414C177.371 232.295 177.296 232.158 177.253 232.013C177.21 231.867 177.2 231.714 177.224 231.565L180.676 207.244C180.696 207.093 180.75 206.947 180.833 206.815C180.916 206.682 181.027 206.566 181.16 206.472C181.293 206.379 181.445 206.309 181.608 206.268C181.771 206.228 181.941 206.216 182.108 206.234C182.276 206.253 182.438 206.301 182.585 206.375C182.732 206.45 182.862 206.55 182.966 206.67C183.07 206.79 183.147 206.927 183.192 207.073C183.238 207.22 183.251 207.373 183.23 207.524L179.779 231.845C179.757 231.996 179.703 232.142 179.618 232.275C179.534 232.407 179.42 232.523 179.285 232.615C179.15 232.708 178.996 232.775 178.832 232.814C178.668 232.852 178.497 232.86 178.329 232.839Z" fill="#CED1E4" fill-opacity="0.6"/>
<path d="M270.418 354.817C271.179 353.915 272.221 353.238 273.411 352.87C274.601 352.503 275.885 352.461 277.102 352.752C278.318 353.042 279.41 353.651 280.241 354.501C281.072 355.351 281.604 356.404 281.769 357.526C281.934 358.649 281.725 359.79 281.168 360.805C280.611 361.821 279.732 362.664 278.642 363.229C277.551 363.794 276.299 364.055 275.044 363.978C273.789 363.902 272.587 363.491 271.591 362.799C270.927 362.348 270.369 361.782 269.949 361.135C269.53 360.488 269.258 359.772 269.148 359.029C269.039 358.286 269.095 357.531 269.313 356.808C269.531 356.085 269.906 355.408 270.418 354.817Z" fill="#CED1E4" fill-opacity="0.6"/>
<path d="M340.071 646.7C339.964 647.771 339.507 648.788 338.758 649.625C338.008 650.461 337 651.079 335.861 651.401C334.721 651.722 333.501 651.732 332.355 651.43C331.21 651.127 330.189 650.526 329.423 649.702C328.656 648.878 328.179 647.868 328.05 646.8C327.921 645.731 328.147 644.653 328.699 643.7C329.252 642.747 330.105 641.963 331.152 641.447C332.2 640.93 333.393 640.705 334.583 640.799C336.177 640.933 337.649 641.628 338.676 642.733C339.704 643.838 340.205 645.264 340.071 646.7Z" fill="#CED1E4" fill-opacity="0.6"/>
</svg>
