<svg width="20" height="20" viewBox="0 0 20 20" fill="none" xmlns="http://www.w3.org/2000/svg">
<path d="M5.83341 3.33333V16.6667H14.1667V3.33333H5.83341ZM5.00008 1.66667H15.0001C15.2211 1.66667 15.4331 1.75447 15.5893 1.91075C15.7456 2.06703 15.8334 2.27899 15.8334 2.5V17.5C15.8334 17.721 15.7456 17.933 15.5893 18.0893C15.4331 18.2455 15.2211 18.3333 15.0001 18.3333H5.00008C4.77907 18.3333 4.56711 18.2455 4.41083 18.0893C4.25455 17.933 4.16675 17.721 4.16675 17.5V2.5C4.16675 2.27899 4.25455 2.06703 4.41083 1.91075C4.56711 1.75447 4.77907 1.66667 5.00008 1.66667ZM10.0001 14.1667C10.2211 14.1667 10.4331 14.2545 10.5893 14.4107C10.7456 14.567 10.8334 14.779 10.8334 15C10.8334 15.221 10.7456 15.433 10.5893 15.5893C10.4331 15.7455 10.2211 15.8333 10.0001 15.8333C9.77907 15.8333 9.56711 15.7455 9.41083 15.5893C9.25455 15.433 9.16675 15.221 9.16675 15C9.16675 14.779 9.25455 14.567 9.41083 14.4107C9.56711 14.2545 9.77907 14.1667 10.0001 14.1667Z" fill="#5E3BEE"/>
</svg>
