<svg width="1280" height="504" viewBox="0 0 1280 504" fill="none" xmlns="http://www.w3.org/2000/svg">
<mask id="mask0" mask-type="alpha" maskUnits="userSpaceOnUse" x="0" y="0" width="1280" height="504">
<rect width="1280" height="504" fill="#F6F6FC"/>
</mask>
<g mask="url(#mask0)">
<path d="M856.466 309.216C856.195 309.219 855.93 309.137 855.708 308.982C855.485 308.827 855.316 308.608 855.223 308.353L847.354 285.523C847.244 285.198 847.268 284.842 847.42 284.535C847.572 284.227 847.84 283.993 848.165 283.883C848.49 283.773 848.845 283.796 849.153 283.949C849.46 284.101 849.695 284.369 849.804 284.694L857.674 307.524C857.733 307.683 857.76 307.851 857.752 308.02C857.743 308.189 857.701 308.355 857.626 308.507C857.552 308.659 857.448 308.794 857.319 308.904C857.191 309.014 857.042 309.097 856.88 309.147C856.75 309.204 856.608 309.228 856.466 309.216V309.216Z" fill="#0A9B6F" fill-opacity="0.1"/>
<path d="M1111.44 430.273C1111.15 430.285 1110.87 430.2 1110.64 430.033C1110.41 429.866 1110.24 429.627 1110.16 429.352C1110.08 429.078 1110.09 428.785 1110.2 428.52C1110.31 428.255 1110.5 428.033 1110.75 427.89L1129.69 416.147C1129.84 416.053 1130 415.989 1130.17 415.959C1130.34 415.929 1130.51 415.933 1130.68 415.972C1130.85 416.011 1131.01 416.083 1131.14 416.184C1131.28 416.286 1131.4 416.414 1131.49 416.562C1131.58 416.703 1131.65 416.862 1131.68 417.029C1131.71 417.196 1131.7 417.367 1131.66 417.532C1131.62 417.697 1131.55 417.852 1131.45 417.988C1131.35 418.124 1131.22 418.238 1131.08 418.323L1112.13 430.101C1111.91 430.21 1111.68 430.269 1111.44 430.273V430.273Z" fill="#0A9B6F" fill-opacity="0.1"/>
<path d="M997.774 335.224C997.615 335.226 997.457 335.197 997.309 335.137C997.16 335.078 997.025 334.99 996.912 334.878C996.673 334.633 996.54 334.305 996.54 333.963C996.54 333.621 996.673 333.293 996.912 333.048L1009.72 318.818C1009.82 318.659 1009.96 318.523 1010.12 318.422C1010.28 318.32 1010.46 318.254 1010.64 318.228C1010.83 318.203 1011.02 318.219 1011.2 318.274C1011.38 318.33 1011.55 318.424 1011.69 318.55C1011.83 318.676 1011.95 318.832 1012.02 319.006C1012.1 319.18 1012.13 319.368 1012.13 319.557C1012.13 319.747 1012.08 319.933 1012 320.104C1011.92 320.274 1011.8 320.425 1011.65 320.545L998.844 334.775C998.711 334.925 998.545 335.043 998.36 335.121C998.175 335.198 997.975 335.233 997.774 335.224V335.224Z" fill="#0A9B6F" fill-opacity="0.1"/>
<path d="M788.435 87.9291C788.099 87.9296 787.775 87.8008 787.531 87.5694C787.287 87.338 787.141 87.0217 787.123 86.6857L786.813 67.137C786.812 66.7914 786.944 66.4589 787.182 66.2082C787.42 65.9574 787.745 65.8077 788.09 65.79C788.26 65.7854 788.43 65.8151 788.589 65.8772C788.748 65.9394 788.893 66.0328 789.015 66.1519C789.137 66.271 789.234 66.4134 789.301 66.5708C789.367 66.7281 789.401 66.8972 789.401 67.0679L789.712 86.6166C789.721 86.7856 789.696 86.9548 789.638 87.1137C789.58 87.2726 789.49 87.418 789.373 87.5409C789.257 87.6637 789.117 87.7615 788.961 87.8283C788.806 87.8951 788.638 87.9294 788.469 87.9291H788.435Z" fill="#0A9B6F" fill-opacity="0.1"/>
<path d="M925.049 57.8115C924.796 57.815 924.547 57.7452 924.333 57.6103C924.119 57.4755 923.948 57.2815 923.841 57.0517C923.712 56.7302 923.712 56.3714 923.841 56.0498C923.969 55.7282 924.217 55.4686 924.531 55.3247L943.032 47.2428C943.188 47.175 943.356 47.1391 943.526 47.1373C943.697 47.1354 943.865 47.1676 944.023 47.232C944.181 47.2963 944.324 47.3915 944.444 47.512C944.564 47.6325 944.659 47.7758 944.723 47.9336C944.797 48.0869 944.838 48.2537 944.845 48.4238C944.852 48.5938 944.824 48.7634 944.762 48.922C944.701 49.0807 944.607 49.225 944.488 49.3461C944.368 49.4671 944.225 49.5624 944.068 49.6259L925.567 57.7079C925.403 57.7754 925.227 57.8106 925.049 57.8115V57.8115Z" fill="#0A9B6F" fill-opacity="0.1"/>
<path d="M1035.22 486.018C1034.91 486.022 1034.61 485.91 1034.37 485.703C1034.13 485.496 1033.98 485.209 1033.94 484.897C1033.9 484.585 1033.98 484.269 1034.16 484.011C1034.34 483.753 1034.61 483.57 1034.91 483.497L1060.25 477.108C1060.58 477.023 1060.94 477.074 1061.23 477.248C1061.53 477.423 1061.75 477.707 1061.84 478.04C1061.92 478.374 1061.87 478.728 1061.7 479.026C1061.52 479.323 1061.24 479.54 1060.9 479.629L1035.57 485.984L1035.22 486.018Z" fill="#0A9B6F" fill-opacity="0.1"/>
<path d="M662.244 279.997H661.899L643.467 275.093C643.304 275.052 643.15 274.98 643.015 274.88C642.879 274.78 642.765 274.654 642.678 274.509C642.592 274.365 642.535 274.205 642.51 274.038C642.485 273.871 642.494 273.702 642.535 273.538C642.625 273.205 642.841 272.921 643.138 272.746C643.435 272.572 643.789 272.521 644.123 272.606L662.555 277.476C662.861 277.548 663.129 277.731 663.309 277.989C663.488 278.248 663.566 278.563 663.528 278.876C663.489 279.188 663.337 279.475 663.1 279.682C662.863 279.889 662.558 280.001 662.244 279.997V279.997Z" fill="#0A9B6F" fill-opacity="0.1"/>
<path d="M702.904 514.443C702.736 514.448 702.569 514.417 702.414 514.351C702.259 514.286 702.12 514.187 702.007 514.063C701.885 513.944 701.788 513.802 701.721 513.645C701.655 513.488 701.621 513.319 701.621 513.148C701.621 512.978 701.655 512.809 701.721 512.652C701.788 512.494 701.885 512.352 702.007 512.233L721.439 492.65C721.688 492.419 722.015 492.291 722.354 492.291C722.693 492.291 723.02 492.419 723.269 492.65C723.391 492.769 723.488 492.911 723.554 493.068C723.62 493.226 723.654 493.394 723.654 493.565C723.654 493.736 723.62 493.904 723.554 494.062C723.488 494.219 723.391 494.361 723.269 494.48L703.836 514.063C703.717 514.19 703.572 514.29 703.411 514.355C703.251 514.421 703.078 514.451 702.904 514.443V514.443Z" fill="#0A9B6F" fill-opacity="0.1"/>
<path d="M809.8 486.64H809.455C809.126 486.536 808.849 486.31 808.682 486.008C808.515 485.706 808.471 485.351 808.557 485.017L812.32 471.961C812.364 471.797 812.44 471.643 812.544 471.509C812.648 471.375 812.777 471.262 812.925 471.179C813.073 471.095 813.236 471.042 813.405 471.022C813.573 471.002 813.744 471.016 813.907 471.063C814.241 471.16 814.524 471.385 814.692 471.689C814.86 471.993 814.901 472.352 814.805 472.687L811.043 485.742C810.966 486.009 810.801 486.243 810.576 486.406C810.351 486.568 810.078 486.651 809.8 486.64V486.64Z" fill="#0A9B6F" fill-opacity="0.1"/>
<path d="M543.192 453.861C542.967 453.859 542.746 453.798 542.552 453.682C542.358 453.567 542.198 453.402 542.088 453.205C542.002 453.058 541.947 452.896 541.925 452.727C541.903 452.558 541.914 452.387 541.959 452.223C542.004 452.059 542.082 451.905 542.187 451.772C542.292 451.638 542.422 451.526 542.571 451.444L568.217 436.938C568.363 436.852 568.526 436.796 568.694 436.774C568.863 436.752 569.034 436.764 569.198 436.809C569.362 436.854 569.516 436.931 569.649 437.037C569.783 437.142 569.894 437.272 569.977 437.421C570.063 437.568 570.118 437.731 570.14 437.899C570.162 438.068 570.15 438.24 570.105 438.404C570.06 438.568 569.983 438.721 569.878 438.855C569.773 438.989 569.642 439.1 569.494 439.183L543.848 453.654C543.65 453.776 543.425 453.847 543.192 453.861V453.861Z" fill="#3AE8B4"/>
<path d="M1026.18 115.767C1025.96 115.766 1025.75 115.708 1025.56 115.599C1025.38 115.49 1025.22 115.333 1025.11 115.145L1011.96 94.4221C1011.87 94.278 1011.8 94.1164 1011.77 93.9469C1011.74 93.7774 1011.75 93.6036 1011.79 93.4358C1011.82 93.2681 1011.9 93.1099 1012 92.9708C1012.1 92.8316 1012.23 92.7144 1012.37 92.6261C1012.52 92.5327 1012.67 92.4692 1012.84 92.4394C1013.01 92.4097 1013.18 92.4144 1013.34 92.4532C1013.51 92.492 1013.66 92.5642 1013.8 92.6652C1013.94 92.7662 1014.05 92.8939 1014.13 93.0406L1027.29 113.764C1027.38 113.908 1027.44 114.069 1027.47 114.239C1027.5 114.408 1027.5 114.582 1027.46 114.75C1027.42 114.918 1027.35 115.076 1027.25 115.215C1027.15 115.354 1027.02 115.471 1026.87 115.56C1026.67 115.695 1026.43 115.768 1026.18 115.767V115.767Z" fill="#0A9B6F" fill-opacity="0.1"/>
<path d="M910.069 359.021C909.765 359.018 909.472 358.91 909.239 358.714C909.006 358.519 908.848 358.249 908.792 357.95L906.238 343.133C906.209 342.965 906.213 342.793 906.251 342.626C906.289 342.46 906.36 342.303 906.46 342.165C906.56 342.026 906.686 341.909 906.832 341.82C906.977 341.732 907.139 341.673 907.308 341.648C907.473 341.618 907.643 341.621 907.807 341.657C907.972 341.693 908.127 341.761 908.265 341.858C908.403 341.954 908.521 342.076 908.611 342.218C908.702 342.36 908.763 342.518 908.792 342.684L911.346 357.501C911.397 357.843 911.315 358.192 911.115 358.475C910.916 358.758 910.616 358.953 910.276 359.021H910.069Z" fill="#0A9B6F" fill-opacity="0.1"/>
<path d="M1207.29 104.507C1207.09 104.506 1206.89 104.459 1206.71 104.369C1206.53 104.279 1206.37 104.149 1206.25 103.989L1190.27 82.2993C1190.17 82.1657 1190.09 82.0131 1190.05 81.8504C1190.01 81.6876 1190 81.5179 1190.02 81.351C1190.04 81.1841 1190.1 81.0233 1190.18 80.8778C1190.27 80.7323 1190.38 80.6051 1190.51 80.5033C1190.79 80.2981 1191.14 80.212 1191.48 80.2637C1191.83 80.3155 1192.13 80.501 1192.34 80.7796L1208.36 102.47C1208.55 102.747 1208.63 103.089 1208.58 103.423C1208.53 103.758 1208.35 104.06 1208.08 104.266C1207.85 104.428 1207.57 104.513 1207.29 104.507V104.507Z" fill="#0A9B6F" fill-opacity="0.1"/>
<path d="M1054.21 403.472C1054.02 403.476 1053.84 403.437 1053.67 403.359C1053.51 403.282 1053.36 403.166 1053.24 403.023L1041.54 389.414C1041.37 389.148 1041.31 388.831 1041.35 388.52C1041.4 388.209 1041.56 387.925 1041.8 387.72C1042.03 387.515 1042.34 387.402 1042.65 387.403C1042.97 387.403 1043.27 387.517 1043.51 387.722L1055.17 401.33C1055.3 401.449 1055.39 401.592 1055.46 401.749C1055.53 401.906 1055.56 402.075 1055.56 402.245C1055.56 402.416 1055.53 402.585 1055.46 402.742C1055.39 402.899 1055.3 403.042 1055.17 403.161C1055.04 403.278 1054.89 403.366 1054.72 403.419C1054.56 403.473 1054.38 403.491 1054.21 403.472Z" fill="#0A9B6F" fill-opacity="0.1"/>
<path d="M666.869 441.809C666.659 441.812 666.452 441.763 666.265 441.667C666.079 441.571 665.919 441.43 665.799 441.257L658.378 430.239C658.186 429.955 658.115 429.606 658.179 429.269C658.244 428.932 658.44 428.635 658.724 428.443C659.007 428.25 659.356 428.179 659.692 428.243C660.029 428.308 660.326 428.504 660.518 428.788L667.939 439.806C668.041 439.944 668.114 440.102 668.152 440.27C668.19 440.437 668.193 440.611 668.16 440.78C668.128 440.948 668.061 441.109 667.963 441.25C667.866 441.392 667.74 441.511 667.594 441.602C667.379 441.742 667.126 441.815 666.869 441.809V441.809Z" fill="#0A9B6F" fill-opacity="0.1"/>
<path d="M683.506 66.2043C683.227 66.2015 682.955 66.1096 682.732 65.9418C682.508 65.7741 682.344 65.5393 682.263 65.2717C682.216 65.1084 682.202 64.9374 682.222 64.7686C682.242 64.5998 682.295 64.4367 682.379 64.2888C682.462 64.1408 682.574 64.011 682.709 63.907C682.843 63.803 682.997 63.7268 683.161 63.683L696.035 60.2291C696.201 60.1826 696.374 60.1699 696.544 60.1919C696.715 60.2139 696.879 60.2701 697.028 60.3572C697.176 60.4443 697.305 60.5604 697.407 60.6987C697.51 60.8369 697.583 60.9944 697.623 61.1617C697.707 61.4959 697.657 61.8499 697.482 62.1472C697.308 62.4444 697.024 62.6611 696.691 62.7504L683.851 66.2043H683.506Z" fill="#0A9B6F" fill-opacity="0.1"/>
<path d="M737.558 146.403C737.264 146.403 736.978 146.305 736.746 146.123C736.515 145.941 736.351 145.687 736.281 145.401L731.69 124.505C731.617 124.171 731.678 123.822 731.858 123.532C732.039 123.241 732.325 123.033 732.657 122.951C732.995 122.888 733.344 122.957 733.632 123.143C733.921 123.329 734.128 123.619 734.21 123.953L738.835 144.676C738.897 145.009 738.827 145.354 738.641 145.637C738.454 145.921 738.165 146.121 737.834 146.195L737.558 146.403Z" fill="#0A9B6F" fill-opacity="0.1"/>
<path d="M859.952 126.543C859.771 126.59 859.581 126.59 859.4 126.543C859.247 126.469 859.11 126.366 858.998 126.239C858.885 126.112 858.799 125.963 858.744 125.803C858.69 125.642 858.668 125.472 858.679 125.302C858.691 125.133 858.737 124.968 858.813 124.816L871.653 98.8776C871.824 98.6022 872.091 98.3999 872.403 98.3099C872.714 98.2198 873.048 98.2484 873.339 98.39C873.631 98.5316 873.86 98.7763 873.982 99.0768C874.104 99.3773 874.11 99.7123 874 100.017L861.126 125.956C861.004 126.153 860.83 126.313 860.623 126.417C860.415 126.521 860.183 126.564 859.952 126.543V126.543Z" fill="#0A9B6F" fill-opacity="0.1"/>
<path d="M977.928 404.853H977.583L958.184 399.396C957.996 399.373 957.814 399.309 957.653 399.209C957.491 399.109 957.353 398.974 957.248 398.816C957.144 398.657 957.075 398.477 957.046 398.289C957.018 398.101 957.031 397.908 957.084 397.726C957.137 397.543 957.23 397.374 957.355 397.231C957.48 397.087 957.634 396.973 957.808 396.895C957.982 396.817 958.17 396.778 958.36 396.781C958.55 396.783 958.738 396.827 958.909 396.909L978.273 402.366C978.437 402.41 978.591 402.486 978.725 402.59C978.859 402.694 978.971 402.824 979.055 402.972C979.139 403.12 979.192 403.283 979.212 403.452C979.231 403.621 979.217 403.792 979.17 403.955C979.093 404.222 978.929 404.456 978.704 404.619C978.479 404.781 978.205 404.864 977.928 404.853V404.853Z" fill="#0A9B6F" fill-opacity="0.1"/>
<path d="M1263.68 77.4934C1263.41 77.4984 1263.14 77.4134 1262.92 77.2516C1262.78 77.155 1262.66 77.0317 1262.57 76.8887C1262.48 76.7457 1262.42 76.5859 1262.39 76.4188C1262.36 76.2516 1262.37 76.0803 1262.4 75.9149C1262.44 75.7496 1262.51 75.5934 1262.61 75.4556L1279.45 51.2787C1279.67 51.0389 1279.96 50.8855 1280.28 50.8474C1280.6 50.8093 1280.92 50.8893 1281.18 51.0721C1281.45 51.255 1281.63 51.5281 1281.71 51.8398C1281.79 52.1515 1281.74 52.4802 1281.59 52.7639L1264.75 76.9408C1264.63 77.1138 1264.47 77.2548 1264.28 77.3512C1264.1 77.4476 1263.89 77.4964 1263.68 77.4934V77.4934Z" fill="#0A9B6F" fill-opacity="0.1"/>
<path d="M949.659 138.079H949.417L933.195 135.143C932.898 135.043 932.646 134.839 932.486 134.57C932.326 134.3 932.268 133.981 932.322 133.672C932.376 133.363 932.539 133.084 932.782 132.885C933.024 132.686 933.33 132.58 933.644 132.587L949.866 135.523C950.174 135.592 950.447 135.771 950.634 136.025C950.821 136.28 950.911 136.593 950.885 136.908C950.86 137.223 950.722 137.518 950.497 137.74C950.272 137.961 949.974 138.094 949.659 138.113V138.079Z" fill="#0A9B6F" fill-opacity="0.1"/>
<path d="M863.852 29.4899C863.621 29.5026 863.392 29.4422 863.197 29.3172L847.526 19.8537C847.383 19.7654 847.259 19.6497 847.161 19.5134C847.063 19.377 846.992 19.2226 846.954 19.0589C846.915 18.8953 846.91 18.7257 846.937 18.5598C846.964 18.3939 847.023 18.235 847.112 18.0922C847.194 17.9427 847.306 17.8117 847.44 17.7072C847.575 17.6028 847.73 17.5272 847.895 17.4851C848.06 17.4429 848.232 17.4353 848.4 17.4625C848.568 17.4897 848.729 17.5512 848.872 17.6432L864.37 27.1067C864.516 27.1922 864.643 27.3058 864.745 27.4409C864.846 27.576 864.92 27.7299 864.962 27.8937C865.004 28.0575 865.013 28.228 864.988 28.3953C864.963 28.5626 864.906 28.7233 864.819 28.8682C864.72 29.042 864.58 29.1893 864.412 29.2975C864.243 29.4058 864.051 29.4718 863.852 29.4899V29.4899Z" fill="#0A9B6F" fill-opacity="0.1"/>
<path d="M1154.79 16.4346C1154.55 16.4318 1154.32 16.3662 1154.12 16.2447C1153.92 16.1232 1153.76 15.9503 1153.65 15.7439C1153.57 15.5943 1153.52 15.4309 1153.51 15.2629C1153.5 15.095 1153.51 14.9259 1153.57 14.7654C1153.62 14.6049 1153.7 14.4562 1153.81 14.3277C1153.92 14.1992 1154.05 14.0936 1154.2 14.017L1169.73 5.76226C1169.88 5.67852 1170.04 5.62542 1170.21 5.60623C1170.38 5.58703 1170.55 5.60212 1170.71 5.65059C1170.87 5.69905 1171.02 5.77986 1171.15 5.88813C1171.28 5.99639 1171.38 6.12983 1171.46 6.28033C1171.62 6.58338 1171.66 6.93747 1171.56 7.26673C1171.46 7.59599 1171.24 7.87423 1170.94 8.0418L1155.41 16.2965C1155.22 16.3916 1155 16.4389 1154.79 16.4346Z" fill="#3AE8B4"/>
<path d="M600.288 214.927H599.977C599.646 214.845 599.359 214.636 599.178 214.346C598.998 214.056 598.938 213.706 599.011 213.372L603.843 193.029C603.921 192.695 604.128 192.405 604.419 192.224C604.711 192.043 605.062 191.984 605.396 192.062C605.73 192.14 606.02 192.348 606.201 192.639C606.382 192.931 606.44 193.282 606.363 193.617L601.53 213.96C601.467 214.24 601.308 214.489 601.082 214.665C600.855 214.841 600.575 214.934 600.288 214.927V214.927Z" fill="#0A9B6F" fill-opacity="0.1"/>
<path d="M872.55 431.448C872.212 431.448 871.887 431.313 871.647 431.074C871.408 430.834 871.273 430.509 871.273 430.17C871.273 429.828 871.407 429.499 871.645 429.254C871.884 429.009 872.208 428.867 872.55 428.858L890.395 428.616C890.702 428.666 890.981 428.824 891.183 429.061C891.384 429.298 891.495 429.6 891.495 429.911C891.495 430.222 891.384 430.523 891.183 430.761C890.981 430.998 890.702 431.156 890.395 431.206L872.516 431.448H872.55Z" fill="#0A9B6F" fill-opacity="0.1"/>
<path d="M746.291 433.693H745.842C745.525 433.569 745.269 433.327 745.128 433.017C744.986 432.708 744.97 432.356 745.083 432.035L749.777 419.083C749.901 418.766 750.143 418.51 750.452 418.368C750.761 418.226 751.113 418.21 751.434 418.323C751.756 418.44 752.021 418.68 752.169 418.99C752.317 419.3 752.338 419.656 752.227 419.981L747.499 432.898C747.405 433.14 747.239 433.347 747.022 433.489C746.805 433.632 746.55 433.703 746.291 433.693V433.693Z" fill="#0A9B6F" fill-opacity="0.1"/>
<path d="M967.573 483.635C967.237 483.636 966.913 483.507 966.669 483.276C966.425 483.044 966.279 482.728 966.261 482.392L965.536 462.67C965.527 462.501 965.552 462.332 965.61 462.173C965.669 462.014 965.759 461.869 965.875 461.746C965.991 461.623 966.131 461.526 966.287 461.459C966.442 461.392 966.61 461.358 966.779 461.358C966.952 461.338 967.127 461.356 967.292 461.409C967.458 461.463 967.609 461.553 967.737 461.671C967.865 461.789 967.966 461.933 968.033 462.094C968.1 462.254 968.131 462.427 968.125 462.601L968.85 482.288C968.859 482.459 968.834 482.63 968.776 482.79C968.718 482.951 968.629 483.099 968.513 483.224C968.397 483.35 968.257 483.451 968.102 483.522C967.946 483.592 967.778 483.631 967.607 483.635H967.573Z" fill="#0A9B6F" fill-opacity="0.1"/>
<path d="M619.858 365.134C619.653 365.138 619.45 365.089 619.269 364.992C619.088 364.895 618.934 364.754 618.823 364.582L604.637 344.998C604.538 344.86 604.468 344.704 604.43 344.539C604.392 344.374 604.387 344.202 604.416 344.035C604.445 343.868 604.507 343.708 604.598 343.565C604.689 343.422 604.808 343.299 604.947 343.202C605.081 343.097 605.235 343.02 605.4 342.977C605.565 342.934 605.737 342.925 605.905 342.95C606.073 342.976 606.234 343.037 606.378 343.128C606.522 343.218 606.646 343.338 606.742 343.479L620.928 363.096C621.027 363.234 621.098 363.39 621.136 363.556C621.174 363.721 621.178 363.892 621.149 364.06C621.12 364.227 621.059 364.386 620.967 364.529C620.876 364.672 620.757 364.796 620.618 364.892C620.401 365.059 620.132 365.145 619.858 365.134V365.134Z" fill="#0A9B6F" fill-opacity="0.1"/>
<path d="M1095.63 333.013C1095.36 333.019 1095.1 332.938 1094.88 332.782C1094.66 332.626 1094.5 332.405 1094.42 332.15C1094.31 331.825 1094.33 331.469 1094.48 331.159C1094.63 330.849 1094.89 330.609 1095.21 330.492L1114.3 323.93C1114.46 323.875 1114.63 323.853 1114.8 323.864C1114.97 323.876 1115.14 323.92 1115.29 323.996C1115.44 324.071 1115.58 324.176 1115.69 324.304C1115.8 324.432 1115.89 324.58 1115.94 324.741C1115.99 324.902 1116.02 325.073 1116.01 325.242C1115.99 325.412 1115.95 325.577 1115.87 325.73C1115.8 325.882 1115.69 326.018 1115.57 326.13C1115.44 326.242 1115.29 326.328 1115.13 326.382L1096.08 332.944C1095.93 333 1095.78 333.024 1095.63 333.013V333.013Z" fill="#0A9B6F" fill-opacity="0.1"/>
<path d="M1126 524.425C1125.67 524.382 1125.36 524.21 1125.15 523.946C1124.93 523.682 1124.83 523.346 1124.86 523.009L1127.17 498.832C1127.19 498.661 1127.24 498.494 1127.31 498.341C1127.39 498.189 1127.5 498.054 1127.63 497.944C1127.77 497.835 1127.92 497.753 1128.08 497.703C1128.25 497.654 1128.42 497.639 1128.59 497.658C1128.93 497.701 1129.24 497.871 1129.46 498.134C1129.67 498.397 1129.78 498.733 1129.76 499.074L1127.42 523.251C1127.38 523.593 1127.21 523.908 1126.95 524.127C1126.68 524.347 1126.34 524.454 1126 524.425V524.425Z" fill="#0A9B6F" fill-opacity="0.1"/>
<path d="M703.249 364.927C703.027 364.928 702.808 364.872 702.614 364.763C702.421 364.654 702.259 364.496 702.145 364.305L693.274 350.179C693.18 350.035 693.116 349.873 693.086 349.704C693.056 349.534 693.06 349.36 693.099 349.193C693.138 349.025 693.21 348.867 693.311 348.728C693.412 348.588 693.541 348.471 693.688 348.383C693.83 348.29 693.988 348.226 694.155 348.196C694.322 348.167 694.493 348.171 694.658 348.21C694.823 348.249 694.978 348.321 695.114 348.422C695.25 348.523 695.364 348.651 695.449 348.797L704.354 362.924C704.448 363.068 704.512 363.229 704.542 363.399C704.572 363.568 704.568 363.742 704.529 363.91C704.49 364.078 704.418 364.236 704.317 364.375C704.216 364.514 704.087 364.631 703.94 364.72C703.735 364.855 703.495 364.928 703.249 364.927V364.927Z" fill="#0A9B6F" fill-opacity="0.1"/>
<path d="M1283.08 513.269C1282.81 513.253 1282.55 513.17 1282.32 513.027L1265.86 500.939C1265.69 500.851 1265.54 500.727 1265.43 500.576C1265.31 500.426 1265.23 500.252 1265.19 500.066C1265.15 499.88 1265.14 499.688 1265.18 499.502C1265.22 499.316 1265.3 499.14 1265.42 498.988C1265.53 498.836 1265.68 498.71 1265.85 498.62C1266.01 498.53 1266.2 498.477 1266.39 498.466C1266.58 498.454 1266.77 498.484 1266.94 498.553C1267.12 498.622 1267.28 498.729 1267.41 498.867L1283.88 510.921C1284.15 511.126 1284.33 511.428 1284.38 511.763C1284.43 512.098 1284.35 512.439 1284.15 512.717C1284.03 512.89 1283.87 513.031 1283.69 513.127C1283.5 513.223 1283.29 513.272 1283.08 513.269V513.269Z" fill="#0A9B6F" fill-opacity="0.1"/>
<path d="M1192.07 464.846C1191.74 464.837 1191.42 464.715 1191.17 464.501C1190.93 464.256 1190.8 463.928 1190.8 463.586C1190.8 463.244 1190.93 462.915 1191.17 462.67L1202.59 450.34C1202.84 450.149 1203.14 450.051 1203.45 450.065C1203.77 450.078 1204.06 450.202 1204.29 450.414C1204.52 450.625 1204.66 450.911 1204.7 451.221C1204.74 451.53 1204.66 451.842 1204.49 452.102L1193.07 464.432C1192.94 464.572 1192.79 464.682 1192.61 464.754C1192.44 464.826 1192.25 464.857 1192.07 464.846V464.846Z" fill="#3AE8B4"/>
<path d="M1258.2 354.6C1258.03 354.6 1257.86 354.567 1257.71 354.502C1257.56 354.436 1257.42 354.34 1257.3 354.22C1257.06 353.975 1256.93 353.646 1256.93 353.305C1256.93 352.963 1257.06 352.634 1257.3 352.389L1277.11 332.53C1277.36 332.287 1277.68 332.151 1278.03 332.151C1278.37 332.151 1278.7 332.287 1278.94 332.53C1279.18 332.773 1279.32 333.102 1279.32 333.445C1279.32 333.788 1279.18 334.118 1278.94 334.36L1259.16 354.22C1258.9 354.468 1258.56 354.604 1258.2 354.6V354.6Z" fill="#0A9B6F" fill-opacity="0.1"/>
<path d="M1098.59 147.091C1098.3 147.071 1098.02 146.952 1097.8 146.752C1097.58 146.553 1097.44 146.286 1097.39 145.994C1097.34 145.703 1097.39 145.403 1097.54 145.144C1097.68 144.886 1097.91 144.683 1098.18 144.57L1117.4 137.904C1117.57 137.85 1117.74 137.829 1117.9 137.842C1118.07 137.854 1118.24 137.901 1118.39 137.978C1118.54 138.055 1118.67 138.162 1118.78 138.291C1118.89 138.421 1118.98 138.571 1119.03 138.733C1119.09 138.891 1119.11 139.06 1119.1 139.229C1119.1 139.398 1119.05 139.563 1118.98 139.715C1118.91 139.867 1118.8 140.003 1118.67 140.113C1118.54 140.223 1118.39 140.306 1118.23 140.356L1099.04 147.022L1098.59 147.091Z" fill="#3AE8B4"/>
<path d="M935.922 282.622C935.688 282.618 935.46 282.546 935.266 282.415C935.119 282.33 934.992 282.216 934.891 282.08C934.79 281.944 934.718 281.788 934.679 281.623C934.64 281.458 934.636 281.287 934.665 281.12C934.695 280.954 934.758 280.795 934.852 280.653L949.245 257.581C949.423 257.288 949.711 257.078 950.044 256.997C950.378 256.916 950.73 256.971 951.022 257.15C951.315 257.328 951.525 257.616 951.606 257.95C951.687 258.283 951.632 258.635 951.454 258.928L937.026 282C936.915 282.193 936.754 282.353 936.559 282.463C936.365 282.572 936.145 282.627 935.922 282.622V282.622Z" fill="#0A9B6F" fill-opacity="0.1"/>
<path d="M810.18 176.347C809.946 176.344 809.716 176.279 809.516 176.157C809.316 176.036 809.152 175.863 809.041 175.657L799.342 157.973C799.233 157.677 799.234 157.353 799.345 157.058C799.456 156.764 799.669 156.519 799.945 156.368C800.221 156.217 800.542 156.171 800.849 156.237C801.157 156.303 801.43 156.478 801.62 156.729L811.319 174.413C811.403 174.562 811.457 174.727 811.476 174.897C811.496 175.067 811.481 175.239 811.433 175.404C811.385 175.568 811.304 175.721 811.195 175.853C811.087 175.986 810.953 176.095 810.801 176.175C810.613 176.287 810.399 176.347 810.18 176.347V176.347Z" fill="#0A9B6F" fill-opacity="0.1"/>
<path d="M780.116 8.73253C779.945 8.7652 779.77 8.7652 779.599 8.73253L753.159 -2.63058C753.002 -2.69475 752.859 -2.7898 752.738 -2.91015C752.618 -3.0305 752.523 -3.17371 752.458 -3.33138C752.394 -3.48904 752.362 -3.65799 752.364 -3.82827C752.365 -3.99856 752.401 -4.16675 752.469 -4.32297C752.613 -4.63805 752.872 -4.88562 753.194 -5.01425C753.515 -5.14289 753.874 -5.14271 754.195 -5.01374L780.634 6.34939C780.949 6.49322 781.196 6.75289 781.325 7.07448C781.453 7.39607 781.453 7.75486 781.324 8.07631C781.207 8.28957 781.03 8.46467 780.816 8.58094C780.602 8.69721 780.359 8.7498 780.116 8.73253V8.73253Z" fill="#0A9B6F" fill-opacity="0.1"/>
<path d="M758.44 308.318C758.142 308.316 757.852 308.219 757.612 308.042L746.601 299.166C746.468 299.057 746.357 298.923 746.275 298.771C746.193 298.619 746.142 298.453 746.124 298.281C746.088 297.935 746.192 297.588 746.412 297.318C746.631 297.048 746.949 296.876 747.296 296.84C747.642 296.805 747.988 296.908 748.258 297.128L759.234 306.004C759.502 306.221 759.674 306.535 759.713 306.877C759.751 307.22 759.654 307.564 759.441 307.835C759.32 307.984 759.168 308.104 758.995 308.188C758.822 308.271 758.632 308.316 758.44 308.318V308.318Z" fill="#0A9B6F" fill-opacity="0.1"/>
<path d="M1294.99 195.482C1294.71 195.487 1294.43 195.402 1294.2 195.24L1279.74 184.395C1279.6 184.296 1279.48 184.17 1279.4 184.026C1279.31 183.882 1279.25 183.721 1279.22 183.554C1279.2 183.387 1279.21 183.217 1279.25 183.053C1279.29 182.889 1279.36 182.734 1279.46 182.599C1279.67 182.32 1279.97 182.135 1280.32 182.083C1280.66 182.031 1281.01 182.117 1281.29 182.322L1295.75 193.167C1295.89 193.267 1296 193.392 1296.09 193.536C1296.18 193.68 1296.24 193.841 1296.26 194.008C1296.29 194.175 1296.28 194.345 1296.24 194.509C1296.2 194.673 1296.13 194.828 1296.03 194.963C1295.91 195.123 1295.75 195.253 1295.57 195.343C1295.39 195.433 1295.19 195.48 1294.99 195.482V195.482Z" fill="#0A9B6F" fill-opacity="0.1"/>
<path d="M650.025 161.047C649.799 161.048 649.577 160.988 649.382 160.872C649.187 160.757 649.028 160.59 648.921 160.39C648.829 160.247 648.767 160.086 648.74 159.918C648.713 159.749 648.721 159.577 648.763 159.412C648.805 159.247 648.881 159.092 648.985 158.957C649.089 158.823 649.22 158.711 649.37 158.629L673.013 144.814C673.16 144.73 673.323 144.676 673.491 144.655C673.659 144.633 673.83 144.646 673.993 144.691C674.157 144.735 674.31 144.812 674.444 144.916C674.578 145.02 674.69 145.15 674.773 145.297C674.857 145.445 674.911 145.607 674.932 145.775C674.953 145.944 674.941 146.114 674.896 146.278C674.851 146.442 674.775 146.595 674.671 146.729C674.567 146.863 674.438 146.975 674.29 147.059L650.681 160.874C650.478 160.979 650.254 161.038 650.025 161.047V161.047Z" fill="#3AE8B4"/>
<path d="M810.905 246.598C810.659 246.599 810.419 246.527 810.214 246.391L793.336 235.511C793.101 235.303 792.948 235.017 792.906 234.705C792.864 234.393 792.935 234.077 793.107 233.813C793.278 233.55 793.538 233.357 793.84 233.269C794.142 233.181 794.465 233.205 794.751 233.336L811.629 244.215C811.915 244.405 812.114 244.7 812.185 245.036C812.256 245.371 812.193 245.722 812.009 246.011C811.891 246.196 811.727 246.346 811.534 246.449C811.34 246.552 811.124 246.603 810.905 246.598V246.598Z" fill="#0A9B6F" fill-opacity="0.1"/>
<path d="M890.74 215.306C890.502 215.304 890.268 215.235 890.067 215.107C889.866 214.978 889.704 214.796 889.601 214.581L881.628 198.624C881.552 198.473 881.506 198.307 881.494 198.138C881.482 197.969 881.505 197.799 881.559 197.638C881.614 197.477 881.7 197.329 881.812 197.202C881.925 197.074 882.062 196.971 882.215 196.897C882.364 196.82 882.528 196.772 882.695 196.758C882.863 196.744 883.032 196.763 883.193 196.814C883.353 196.866 883.502 196.948 883.63 197.058C883.758 197.167 883.864 197.3 883.94 197.45L892.052 213.51C892.128 213.662 892.174 213.827 892.185 213.997C892.197 214.166 892.175 214.336 892.12 214.497C892.066 214.658 891.98 214.806 891.867 214.933C891.755 215.06 891.618 215.164 891.465 215.237C891.237 215.337 890.983 215.361 890.74 215.306V215.306Z" fill="#0A9B6F" fill-opacity="0.1"/>
<path d="M1196.38 382.541C1196.03 382.54 1195.7 382.404 1195.45 382.161L1177.74 363.822C1177.5 363.576 1177.37 363.248 1177.37 362.906C1177.37 362.564 1177.5 362.236 1177.74 361.991C1177.99 361.75 1178.33 361.616 1178.67 361.616C1179.02 361.616 1179.35 361.75 1179.61 361.991L1197.31 380.193C1197.55 380.438 1197.68 380.766 1197.68 381.108C1197.68 381.45 1197.55 381.778 1197.31 382.023C1197.21 382.177 1197.07 382.304 1196.91 382.394C1196.75 382.484 1196.57 382.535 1196.38 382.541V382.541Z" fill="#0A9B6F" fill-opacity="0.1"/>
<path d="M714.329 234.544C714.162 234.528 714 234.477 713.853 234.396C713.707 234.315 713.578 234.205 713.474 234.072C713.371 233.94 713.296 233.788 713.253 233.626C713.21 233.464 713.2 233.294 713.224 233.128L716.676 206.085C716.696 205.917 716.75 205.755 716.833 205.608C716.916 205.46 717.027 205.331 717.16 205.227C717.293 205.122 717.445 205.045 717.608 205C717.771 204.955 717.941 204.942 718.108 204.962C718.276 204.983 718.438 205.036 718.585 205.119C718.732 205.202 718.862 205.313 718.966 205.446C719.07 205.58 719.147 205.732 719.192 205.895C719.238 206.058 719.251 206.228 719.23 206.396L715.779 233.439C715.757 233.608 715.703 233.77 715.618 233.917C715.533 234.064 715.42 234.193 715.285 234.296C715.15 234.399 714.996 234.474 714.832 234.517C714.668 234.559 714.497 234.569 714.329 234.544V234.544Z" fill="#0A9B6F" fill-opacity="0.1"/>
<path d="M1179.94 271.352C1181.08 272.793 1181.76 274.539 1181.91 276.371C1182.06 278.202 1181.66 280.036 1180.76 281.641C1179.87 283.245 1178.52 284.548 1176.89 285.386C1175.25 286.223 1173.41 286.556 1171.58 286.344C1169.76 286.131 1168.04 285.383 1166.64 284.192C1165.24 283.002 1164.23 281.423 1163.73 279.656C1163.22 277.889 1163.26 276.012 1163.82 274.263C1164.38 272.515 1165.45 270.973 1166.89 269.832C1168.83 268.31 1171.28 267.616 1173.73 267.901C1176.17 268.185 1178.4 269.426 1179.94 271.352V271.352Z" fill="#0A9B6F" fill-opacity="0.1"/>
<path d="M983.485 190.473C984.841 190.279 986.225 190.492 987.46 191.087C988.695 191.681 989.725 192.63 990.419 193.813C991.113 194.995 991.439 196.358 991.357 197.726C991.274 199.095 990.787 200.408 989.956 201.499C989.125 202.589 987.989 203.408 986.692 203.85C985.394 204.292 983.995 204.338 982.672 203.981C981.348 203.625 980.161 202.882 979.261 201.849C978.361 200.815 977.789 199.536 977.617 198.176C977.39 196.378 977.879 194.564 978.976 193.123C980.074 191.683 981.693 190.731 983.485 190.473V190.473Z" fill="#0A9B6F" fill-opacity="0.1"/>
<path d="M1000.98 18.4376C999.909 18.5036 998.838 18.2492 997.906 17.7065C996.975 17.1638 996.225 16.3572 995.752 15.3885C995.278 14.4198 995.102 13.3324 995.246 12.2636C995.389 11.1949 995.846 10.1926 996.559 9.38347C997.271 8.5743 998.207 7.99447 999.249 7.71718C1000.29 7.43989 1001.39 7.47758 1002.41 7.82548C1003.43 8.17338 1004.32 8.8159 1004.98 9.67192C1005.64 10.5279 1006.02 11.5591 1006.09 12.6352C1006.14 13.3531 1006.05 14.0741 1005.82 14.7561C1005.59 15.4382 1005.23 16.0676 1004.75 16.6077C1004.28 17.1478 1003.7 17.5878 1003.05 17.9019C1002.41 18.2161 1001.7 18.3982 1000.98 18.4376V18.4376Z" fill="#0A9B6F" fill-opacity="0.1"/>
<path d="M1196.46 197.369C1195.27 197.877 1193.96 198.02 1192.69 197.781C1191.42 197.542 1190.25 196.931 1189.33 196.025C1188.4 195.12 1187.77 193.961 1187.51 192.695C1187.24 191.43 1187.36 190.115 1187.85 188.916C1188.33 187.718 1189.16 186.691 1190.23 185.965C1191.3 185.239 1192.56 184.847 1193.85 184.838C1195.14 184.83 1196.41 185.206 1197.49 185.918C1198.57 186.63 1199.41 187.646 1199.91 188.838C1200.58 190.428 1200.59 192.217 1199.94 193.816C1199.29 195.414 1198.04 196.691 1196.46 197.369V197.369Z" fill="#0A9B6F" fill-opacity="0.1"/>
<path d="M806.418 370.177C807.179 369.175 808.221 368.421 809.411 368.013C810.601 367.604 811.885 367.558 813.101 367.881C814.318 368.203 815.41 368.88 816.241 369.826C817.072 370.771 817.604 371.942 817.769 373.19C817.934 374.438 817.725 375.707 817.168 376.836C816.611 377.965 815.732 378.903 814.642 379.531C813.551 380.159 812.299 380.449 811.044 380.364C809.789 380.279 808.587 379.823 807.591 379.053C806.927 378.551 806.369 377.922 805.949 377.202C805.53 376.482 805.258 375.686 805.148 374.861C805.039 374.035 805.095 373.195 805.313 372.391C805.531 371.587 805.906 370.834 806.418 370.177V370.177Z" fill="#0A9B6F" fill-opacity="0.1"/>
<path d="M1047.06 264.386C1046 265.04 1044.77 265.366 1043.52 265.322C1042.28 265.277 1041.07 264.865 1040.06 264.136C1039.05 263.407 1038.27 262.394 1037.83 261.226C1037.4 260.057 1037.31 258.785 1037.6 257.57C1037.88 256.354 1038.52 255.25 1039.43 254.396C1040.34 253.542 1041.48 252.977 1042.71 252.771C1043.94 252.566 1045.2 252.729 1046.34 253.241C1047.48 253.753 1048.44 254.59 1049.1 255.647C1049.54 256.354 1049.84 257.141 1049.98 257.964C1050.12 258.787 1050.09 259.628 1049.9 260.441C1049.71 261.253 1049.36 262.02 1048.88 262.697C1048.39 263.374 1047.77 263.948 1047.06 264.386V264.386Z" fill="#0A9B6F" fill-opacity="0.1"/>
<path d="M1090.36 212.504C1090.53 213.778 1090.32 215.074 1089.75 216.229C1089.19 217.383 1088.3 218.346 1087.19 218.995C1086.08 219.644 1084.81 219.951 1083.52 219.878C1082.24 219.805 1081.01 219.354 1079.98 218.583C1078.95 217.812 1078.18 216.754 1077.75 215.543C1077.32 214.331 1077.25 213.02 1077.57 211.773C1077.88 210.526 1078.55 209.4 1079.5 208.534C1080.45 207.669 1081.64 207.103 1082.91 206.909C1083.76 206.782 1084.64 206.826 1085.48 207.04C1086.32 207.253 1087.11 207.63 1087.8 208.151C1088.49 208.671 1089.08 209.323 1089.52 210.071C1089.96 210.818 1090.24 211.645 1090.36 212.504V212.504Z" fill="#0A9B6F" fill-opacity="0.1"/>
<path d="M1095.73 64.6391C1095.42 65.6825 1094.8 66.6095 1093.96 67.3035C1093.12 67.9975 1092.1 68.4276 1091.01 68.5396C1089.93 68.6516 1088.84 68.4406 1087.87 67.9331C1086.91 67.4256 1086.12 66.6442 1085.6 65.6872C1085.08 64.7303 1084.85 63.6405 1084.95 62.5549C1085.04 61.4693 1085.46 60.4364 1086.14 59.5861C1086.82 58.7358 1087.74 58.106 1088.77 57.776C1089.81 57.446 1090.92 57.4305 1091.97 57.7314C1092.67 57.9335 1093.33 58.2733 1093.9 58.7311C1094.47 59.1889 1094.95 59.7556 1095.3 60.3982C1095.65 61.0409 1095.86 61.7467 1095.94 62.4747C1096.01 63.2027 1095.94 63.9384 1095.73 64.6391Z" fill="#0A9B6F" fill-opacity="0.1"/>
</g>
</svg>
