<svg width="256" height="256" viewBox="0 0 256 256" fill="none" xmlns="http://www.w3.org/2000/svg">
<path d="M128 256C198.692 256 256 198.692 256 128C256 57.3076 198.692 0 128 0C57.3076 0 0 57.3076 0 128C0 198.692 57.3076 256 128 256Z" fill="#5E3BEE"/>
<path d="M96.652 134.362L106.401 144.116L113.953 136.564L104.194 126.82L111.735 119.279L121.489 129.028L129.031 121.487L119.287 111.732L126.828 104.191L136.567 113.951L144.114 106.404L134.359 96.6546L149.447 81.5722C150.447 80.5723 151.803 80.0107 153.218 80.0107C154.632 80.0107 155.988 80.5723 156.988 81.5722L179.612 104.196C180.612 105.196 181.174 106.552 181.174 107.967C181.174 109.381 180.612 110.737 179.612 111.737L111.735 179.615C110.735 180.615 109.379 181.176 107.964 181.176C106.55 181.176 105.194 180.615 104.194 179.615L81.5695 156.991C80.5697 155.991 80.008 154.634 80.008 153.22C80.008 151.806 80.5697 150.45 81.5695 149.449L96.652 134.362ZM141.905 164.527L164.535 141.903L178.593 155.961V178.591H155.97L141.905 164.527ZM96.652 119.274L81.5642 104.191C81.0683 103.695 80.6749 103.108 80.4065 102.46C80.1382 101.812 80 101.118 80 100.418C80 99.7163 80.1382 99.0226 80.4065 98.3749C80.6749 97.7281 81.0683 97.1393 81.5642 96.6444L96.652 81.5615C97.6521 80.5617 99.0089 80 100.423 80C101.837 80 103.194 80.5617 104.194 81.5615L119.287 96.6444L96.652 119.274Z" fill="white"/>
</svg>
